<?xml version="1.0" encoding="utf-8"?>
<!-- Generator: Adobe Illustrator 27.0.0, SVG Export Plug-In . SVG Version: 6.00 Build 0)  -->
<svg version="1.1" xmlns="http://www.w3.org/2000/svg" xmlns:xlink="http://www.w3.org/1999/xlink" x="0px" y="0px"
	 viewBox="0 0 5100 2428.57" style="enable-background:new 0 0 5100 2428.57;" xml:space="preserve">
<style type="text/css">
	.st0{fill:url(#SVGID_1_);}
	.st1{fill:#DE999B;}
	.st2{fill:#B0797A;}
	.st3{fill:#FFE0E0;}
	.st4{opacity:0.34;fill:#C97D7F;}
	.st5{fill:#65AB9B;}
	.st6{fill:#4D8276;}
	.st7{fill:#FFFAFA;}
	.st8{fill:#7FD6C2;}
	.st9{fill:none;stroke:#65AB9B;stroke-width:2.8405;stroke-linecap:round;stroke-linejoin:round;stroke-miterlimit:10;}
	.st10{fill:#7C64BA;}
	.st11{fill:#504078;}
	.st12{fill:#8B73CB;}
	.st13{fill:none;stroke:#433878;stroke-width:2.576;stroke-linecap:round;stroke-linejoin:round;stroke-miterlimit:10;}
	.st14{fill:none;stroke:#FFFAFA;stroke-width:3.7942;stroke-miterlimit:10;}
	.st15{fill:#463757;}
	.st16{fill:#EDE1E1;}
	.st17{fill:#644F7D;}
	.st18{opacity:0.28;fill:#FFFAFA;}
	.st19{fill:none;stroke:#463757;stroke-width:2.4286;stroke-linecap:round;stroke-linejoin:round;stroke-miterlimit:10;}
	.st20{fill:#FFFFFF;}
	.st21{fill:#B06A6B;}
	.st22{fill:#5981EB;}
	.st23{fill:none;stroke:#FFFFFF;stroke-width:2.9823;stroke-linecap:round;stroke-linejoin:round;stroke-miterlimit:10;}
	.st24{fill:#E88087;}
	.st25{fill:none;stroke:#CC695E;stroke-width:3.6829;stroke-miterlimit:10;}
	.st26{fill:#FFF2F2;}
	.st27{fill:#CC6269;}
	.st28{fill:#111A33;}
	.st29{fill:none;stroke:#CC6269;stroke-width:3.9584;stroke-linecap:round;stroke-linejoin:round;stroke-miterlimit:10;}
	.st30{fill:none;stroke:#EDE1E1;stroke-width:4.8571;stroke-linecap:round;stroke-linejoin:round;stroke-miterlimit:10;}
	.st31{fill:#804E4D;}
	.st32{fill:#593A39;}
	.st33{fill:#6B5485;}
	.st34{fill:#56446B;}
	.st35{fill:#D6495A;}
	.st36{fill:#FF576B;}
	.st37{fill:#E38B5D;}
	.st38{fill:#C27750;}
	.st39{fill:#FFAC80;}
	.st40{fill:none;stroke:#E38B5D;stroke-width:2.7898;stroke-linecap:round;stroke-linejoin:round;stroke-miterlimit:10;}
	.st41{fill:#E84659;}
	.st42{fill:#CF3E4F;}
	.st43{fill:#CF3041;}
	.st44{fill:none;stroke:#463757;stroke-width:3.7095;stroke-linecap:round;stroke-linejoin:round;stroke-miterlimit:10;}
	.st45{fill:#FF5E70;}
	.st46{fill:#433878;}
	.st47{fill:none;stroke:#D4C9C9;stroke-width:1.5173;stroke-linecap:round;stroke-linejoin:round;stroke-miterlimit:10;}
	.st48{fill:#DD4078;}
	.st49{fill:none;stroke:#D6CBCB;stroke-width:2.7858;stroke-linecap:round;stroke-linejoin:round;stroke-miterlimit:10;}
	.st50{fill:none;stroke:#433878;stroke-width:2.7858;stroke-linecap:round;stroke-linejoin:round;stroke-miterlimit:10;}
	.st51{fill:#F0905D;}
	.st52{fill:#FF9963;}
	.st53{fill:#D4B3B3;}
	.st54{fill:#F7D1D2;}
	.st55{fill:none;stroke:#FFFAFA;stroke-width:1.8831;stroke-linecap:round;stroke-linejoin:round;stroke-miterlimit:10;}
	.st56{fill:#3E917E;}
	.st57{fill:none;stroke:#65AB9B;stroke-width:11.6349;stroke-linecap:round;stroke-linejoin:round;stroke-miterlimit:10;}
	.st58{fill:#4FB8A0;}
	.st59{fill:none;stroke:#3E917E;stroke-width:2.4286;stroke-linecap:round;stroke-linejoin:round;stroke-miterlimit:10;}
	.st60{fill:#504178;}
	.st61{fill:#423663;}
	.st62{fill:#179D9E;}
	.st63{fill:none;stroke:#FFFFFF;stroke-width:1.9227;stroke-linecap:round;stroke-linejoin:round;stroke-miterlimit:10;}
	.st64{fill:#665399;}
	.st65{fill:#EBAEB0;}
	.st66{fill:#FFB994;}
	.st67{fill:none;stroke:#FFFFFF;stroke-width:9.1601;stroke-linecap:round;stroke-linejoin:round;stroke-miterlimit:10;}
	.st68{opacity:0.34;fill:#E3CFCF;}
	.st69{fill:#6CCCB6;}
	.st70{fill:none;stroke:#FFFAFA;stroke-width:2.4286;stroke-linecap:round;stroke-linejoin:round;stroke-miterlimit:10;}
</style>
<g id="background">
	<linearGradient id="SVGID_1_" gradientUnits="userSpaceOnUse" x1="-1.481041e-03" y1="1214.2848" x2="5099.9985" y2="1214.2848">
		<stop  offset="0.1592" style="stop-color:#F7D1D2"/>
		<stop  offset="0.7454" style="stop-color:#F7BABB"/>
	</linearGradient>
	<rect x="0" y="0" class="st0" width="5100" height="2428.57"/>
</g>
<g id="image">
	<polygon class="st1" points="3571.05,384.47 3571.05,0 5100,0 5100,1367.47 	"/>
	<polygon class="st2" points="4949.62,0 4955.68,1007.2 5010.94,973.37 5011.69,0 	"/>
	<polygon class="st2" points="4556.57,0 4560.85,711.44 4617.07,743.53 4612.6,0 	"/>
	<polygon class="st2" points="4268.85,469.75 4268.85,469.75 4266.13,17.8 4266.02,0 4209.08,0 4212.16,512.43 4212.16,512.43 
		4883.53,895.93 4883.04,814 	"/>
	<path class="st3" d="M4292.63,42.38c0,0,68.81-57.62,124.53-4.87c55.71,52.75,64.06,81.43,64.06,81.43
		C4448.93,117.82,4292.63,42.38,4292.63,42.38z"/>
	<polygon class="st3" points="4138.48,540.8 4955.68,1007.2 4949.62,0 4878.15,0 4883.53,895.93 4574.77,719.71 4570.44,0 
		4514.41,0 4518.54,687.62 4211.95,512.64 4208.87,0 4135.23,0 	"/>
	<path class="st3" d="M4686.69,375.07c0,0,32.78-25.11,50.31,3.67c0,0,27.66-31.54,67.62-9.05c39.96,22.49,39.96,76.52,39.96,76.52
		L4686.69,375.07z"/>
	<g>
		<g>
			<path class="st4" d="M2385.58,1404.17l144.39-27.66l196.43-109.66c20.58-11.49,19.27-41.53-2.23-51.19l-100.78-45.28
				L2385.58,1404.17z"/>
			<path class="st5" d="M2581.06,721.56l-0.82-0.48l-1.86,447.91c-0.01,1.91-1.04,3.68-2.7,4.62l-290.23,165.96
				c-3.58,2.04-6.11-463-6.11-463c0.01-1.91,1.04-3.68,2.7-4.62L2571,706.71c1.48-0.85,3.55-1.59,5.18-0.87l9.64,4.96
				L2581.06,721.56z"/>
			<path class="st6" d="M2290.64,876.94l290.23-165.96c3.58-2.05,8.03,0.55,8.01,4.67l-1.9,458.33c-0.01,1.91-1.04,3.67-2.7,4.62
				l-290.23,165.96c-1.4-2.44-3.91-5.47-8.01-4.67l1.9-458.33C2287.95,879.65,2288.98,877.89,2290.64,876.94z"/>
			<path class="st7" d="M2663.45,768.95c-52.56-9.9-64.84-15.44-80.6-39.5l-274.23,156.96c2.28,18.12,21.48,42.25,86.99,39.54
				L2663.45,768.95z"/>
			<path class="st6" d="M2677.97,770.81l-13.55-7.55c-1.62-1.37-4.37-1.13-6.47,0.07l-286.92,164.07c-1.66,0.95-2.69,2.71-2.7,4.62
				l-1.9,458.33c-0.02,4.12,4.43,6.71,8.01,4.67l290.23-165.96c1.66-0.95,2.69-2.71,2.7-4.62l1.83-439.73l7.72-0.82L2677.97,770.81z
				"/>
			<path class="st8" d="M2381.29,938.91c-53.86,3.82-83.86-27.33-101.62-64.1l4.53,470.43c0.92,55.01,88.81,67.63,97.09,59.52
				V938.91z"/>
			<path class="st5" d="M2383.16,937.11l290.23-165.96c3.58-2.05,8.03,0.55,8.01,4.67l-1.9,458.33c-0.01,1.91-1.04,3.67-2.7,4.62
				l-291.21,165.39c-3.58,2.05-7.04,0.03-7.02-4.09l1.9-458.33C2380.47,939.83,2381.5,938.06,2383.16,937.11z"/>
			<line class="st9" x1="2389.95" y1="953.89" x2="2389.95" y2="1385.29"/>
		</g>
		<g>
			<path class="st4" d="M2619,1513.09l140.13-28.39l177.51-109.03c18.6-11.42,11.82-40.77-11.56-50.01l-109.57-43.31L2619,1513.09z"
				/>
			<path class="st10" d="M2691.23,844.06l-0.92-0.46l79.7,437.82c0.34,1.87-0.37,3.6-1.87,4.55l-261.56,164.94
				c-3.22,2.03-90.46-452.5-90.46-452.5c-0.34-1.87,0.37-3.6,1.87-4.55l260.42-164.21c1.33-0.84,3.28-1.59,5.05-0.9l10.6,4.75
				L2691.23,844.06z"/>
			<path class="st11" d="M2427.54,998.65l261.56-164.94c3.22-2.03,8.17,0.46,8.9,4.49l81.55,448.01c0.34,1.87-0.37,3.6-1.87,4.54
				l-261.56,164.94c-1.85-2.37-4.93-5.31-8.9-4.49l-81.55-448.01C2425.33,1001.33,2426.04,999.6,2427.54,998.65z"/>
			<path class="st7" d="M2782.69,889.61c-54.64-9.18-68-14.48-88.23-37.85l-247.12,155.99c5.59,17.69,29.29,41.09,94.66,37.84
				L2782.69,889.61z"/>
			<path class="st11" d="M2797.62,891.29l-15-7.25c-1.88-1.32-4.6-1.07-6.5,0.13l-258.58,163.06c-1.5,0.94-2.21,2.68-1.87,4.54
				l81.55,448.01c0.73,4.03,5.68,6.52,8.9,4.49l261.56-164.94c1.5-0.94,2.21-2.68,1.87-4.55l-78.24-429.83l7.61-0.87L2797.62,891.29
				z"/>
			<path class="st12" d="M2529.96,1058.38c-53.45,4.24-89.29-25.93-113.84-61.7l90.22,459.77c10.94,53.76,101.61,65.27,108.45,57.27
				L2529.96,1058.38z"/>
			<path class="st10" d="M2531.51,1056.6l261.56-164.94c3.22-2.03,8.17,0.46,8.9,4.49l81.55,448.01c0.34,1.87-0.37,3.6-1.87,4.55
				L2619,1513.09c-3.22,2.03-7.07,0.09-7.81-3.94l-81.55-448.01C2529.3,1059.28,2530.02,1057.55,2531.51,1056.6z"/>
			<line class="st13" x1="2541.4" y1="1072.94" x2="2619.96" y2="1494.61"/>
		</g>
		<path class="st14" d="M2758.15,1084.96l-103.43,57.12c-19.24,10.62-40.63,2.69-47.55-17.63l-2.48-7.29
			c-6.92-20.32,3.16-45.64,22.4-56.26l103.43-57.12c19.24-10.62,40.63-2.69,47.55,17.63l2.48,7.29
			C2787.47,1049.02,2777.39,1074.34,2758.15,1084.96z"/>
		<path class="st7" d="M2280.91,1118.84c24.02,62.89,63.61,100.71,97.65,118.85v-58.92c-34.71-20.88-67.26-65.17-97.65-132.88
			V1118.84z"/>
	</g>
	<g>
		<path class="st15" d="M2787.05,1577.2l0.3-41.23l33.35,28.18l7.17-16.52l837.5-483.53c10.09-5.82,30.13-5.09,41.78,1.64
			l362.83,208.18v-5.8l55.11,26.78l7.75-3.13l-1.05,25.43c-0.85,5.55-2.98,7.83-6.39,9.81l-871.54,504.5
			c-10.09,5.82-27.88,5.75-39.53-0.97l-417.62-240.78c-6.36-3.67-9.6-8.23-9.62-12.71L2787.05,1577.2z"/>
		<path class="st7" d="M3254.32,1797.67l871.52-503.17c10.09-5.82,8.81-16.09-2.84-22.82l-417.62-241.11
			c-11.65-6.72-29.43-7.46-39.52-1.64l-871.52,503.17c-10.09,5.82-8.81,16.09,2.84,22.82l417.62,241.11
			C3226.45,1802.76,3244.24,1803.49,3254.32,1797.67z"/>
		<g>
			<g>
				<path class="st7" d="M2699.73,933.72c-11.62,6.71-19.42,22.12-17.42,34.45l90.45,558.99c1.98,12.33,13.02,16.87,24.64,10.16
					l856.11-494.28c11.62-6.71,19.42-22.12,17.42-34.45L3580.5,449.6c-2-12.32-13.02-16.87-24.64-10.16L2699.73,933.72z"/>
			</g>
		</g>
		<path class="st7" d="M2647.9,884.43c0.01-0.32,0.02-0.63,0.04-0.95c0-0.04,0.01-0.09,0.01-0.13c0-0.04,0.01-0.09,0.01-0.13
			c0.02-0.22,0.03-0.44,0.05-0.67c0.03-0.31,0.06-0.62,0.1-0.94c0.02-0.15,0.04-0.3,0.06-0.44c0.01-0.06,0.02-0.13,0.03-0.19
			c0.01-0.1,0.03-0.2,0.04-0.3c0.05-0.31,0.1-0.63,0.16-0.94c0.06-0.3,0.12-0.59,0.18-0.89c0-0.01,0-0.02,0.01-0.03
			c0-0.01,0-0.02,0-0.02c0.07-0.32,0.14-0.63,0.22-0.95c0.08-0.31,0.16-0.62,0.25-0.93c0.02-0.08,0.05-0.17,0.07-0.25
			c0.02-0.06,0.03-0.12,0.05-0.18c0.05-0.17,0.1-0.33,0.15-0.5c0.09-0.3,0.19-0.59,0.29-0.89c0.08-0.22,0.15-0.45,0.23-0.67
			c0.01-0.03,0.02-0.06,0.03-0.09c0.01-0.03,0.02-0.07,0.04-0.1c0.1-0.28,0.21-0.56,0.32-0.84c0.1-0.27,0.21-0.54,0.32-0.81
			c0.05-0.11,0.1-0.23,0.15-0.34c0.02-0.05,0.04-0.1,0.06-0.15c0.05-0.11,0.09-0.21,0.14-0.32c0.12-0.28,0.25-0.55,0.38-0.83
			s0.26-0.55,0.4-0.82c0.01-0.03,0.03-0.05,0.04-0.08c0.02-0.04,0.04-0.08,0.06-0.12c0.15-0.29,0.29-0.58,0.45-0.86
			c0.14-0.27,0.3-0.53,0.45-0.79c0.1-0.18,0.2-0.35,0.3-0.53c0.05-0.08,0.09-0.17,0.14-0.25c0.25-0.43,0.53-0.84,0.8-1.26
			c0.09-0.14,0.17-0.28,0.26-0.41c0.01-0.02,0.03-0.04,0.04-0.06c0.35-0.52,0.71-1.04,1.09-1.55c0.05-0.07,0.11-0.14,0.16-0.21
			c0.05-0.06,0.1-0.13,0.15-0.19c0.13-0.17,0.26-0.35,0.39-0.52c0.22-0.28,0.45-0.56,0.68-0.84c0.09-0.11,0.18-0.21,0.27-0.31
			c0.05-0.05,0.09-0.11,0.14-0.16c0.08-0.1,0.17-0.2,0.25-0.29c0.23-0.26,0.45-0.51,0.69-0.76c0.18-0.19,0.35-0.37,0.53-0.56
			c0.03-0.03,0.06-0.07,0.1-0.1c0.03-0.03,0.06-0.06,0.09-0.09c0.25-0.25,0.5-0.5,0.76-0.75c0.26-0.25,0.53-0.5,0.8-0.74
			c0.01-0.01,0.01-0.01,0.02-0.01c0.01-0.01,0.01-0.01,0.02-0.02c0.26-0.23,0.52-0.46,0.79-0.69c0.28-0.24,0.56-0.47,0.85-0.69
			c0.03-0.03,0.07-0.05,0.11-0.08c0.04-0.03,0.08-0.06,0.12-0.09c0.21-0.16,0.41-0.32,0.62-0.47c0.28-0.21,0.57-0.41,0.86-0.61
			c0.08-0.05,0.16-0.11,0.24-0.16c0.03-0.02,0.05-0.04,0.08-0.06c0.01-0.01,0.02-0.01,0.03-0.01c0.17-0.11,0.34-0.23,0.51-0.34
			c0.29-0.18,0.58-0.36,0.87-0.53c0.07-0.04,20.66-11.93,20.73-11.97l25.45,15.37c0,0-21.84,11.43-22.13,11.61
			c-0.29,0.18-0.58,0.37-0.86,0.57c-0.29,0.2-0.58,0.4-0.86,0.61c-0.29,0.21-0.57,0.43-0.85,0.65c-0.12,0.09-0.23,0.19-0.35,0.29
			c-0.45,0.36-0.89,0.73-1.32,1.12l0,0c0,0,0,0,0,0c-0.44,0.39-0.86,0.8-1.28,1.22c-0.05,0.05-0.11,0.1-0.16,0.16
			c-0.4,0.4-0.79,0.81-1.17,1.24c-0.06,0.06-0.12,0.13-0.17,0.19c-0.37,0.42-0.73,0.84-1.08,1.27c-0.06,0.08-0.13,0.16-0.19,0.23
			c-0.35,0.43-0.69,0.88-1.02,1.32c-0.17,0.23-0.33,0.47-0.5,0.71c-0.2,0.29-0.4,0.57-0.6,0.86c-0.22,0.34-0.44,0.68-0.65,1.03
			c-0.14,0.22-0.28,0.44-0.42,0.67c-0.12,0.2-0.23,0.4-0.34,0.6c-0.2,0.35-0.41,0.71-0.6,1.07c-0.05,0.1-0.1,0.19-0.15,0.29
			c-0.26,0.5-0.51,1-0.74,1.5c-0.02,0.04-0.04,0.08-0.06,0.13c-0.25,0.53-0.48,1.07-0.7,1.61c-0.02,0.06-0.04,0.11-0.07,0.17
			c-0.21,0.53-0.41,1.06-0.6,1.59c-0.02,0.07-0.05,0.14-0.07,0.21c-0.18,0.53-0.35,1.05-0.51,1.58c-0.02,0.08-0.05,0.16-0.07,0.24
			c-0.15,0.53-0.29,1.05-0.42,1.58c-0.02,0.08-0.04,0.16-0.06,0.24c-0.12,0.53-0.23,1.06-0.33,1.59c-0.01,0.08-0.03,0.15-0.04,0.23
			c-0.09,0.53-0.17,1.07-0.24,1.6c-0.01,0.07-0.02,0.14-0.02,0.21c-0.06,0.54-0.11,1.07-0.14,1.61c-0.02,0.27-0.03,0.54-0.04,0.8
			c-0.01,0.32-0.01,0.63-0.01,0.95c0,0.33,0.01,0.66,0.02,0.99c0.01,0.33,0.03,0.66,0.06,0.98c0.03,0.35,0.07,0.71,0.11,1.06
			c0.03,0.27,0.07,0.54,0.12,0.81c0,0,0.09,0.54,0.24,1.47l2.24,13.84c1.25-0.72,4.04-2.32,4.09-2.35l25.79,13.96
			c0,0-6.17,3.58-6.45,3.76c-0.29,0.18-0.57,0.37-0.86,0.57c-0.29,0.2-0.57,0.4-0.86,0.61c-0.29,0.21-0.57,0.43-0.85,0.65
			c-0.12,0.09-0.23,0.19-0.35,0.29c-0.45,0.36-0.89,0.74-1.32,1.12l0,0l0,0c-0.44,0.39-0.86,0.8-1.28,1.22
			c-0.05,0.05-0.11,0.1-0.16,0.16c-0.4,0.4-0.79,0.81-1.17,1.24c-0.06,0.06-0.12,0.13-0.17,0.19c-0.37,0.42-0.73,0.84-1.08,1.27
			c-0.06,0.08-0.13,0.16-0.19,0.23c-0.35,0.43-0.69,0.88-1.02,1.32c-0.17,0.23-0.33,0.47-0.5,0.71c-0.2,0.29-0.4,0.57-0.6,0.86
			c-0.22,0.34-0.44,0.68-0.65,1.03c-0.14,0.22-0.28,0.44-0.42,0.67c-0.12,0.2-0.23,0.4-0.34,0.6c-0.2,0.35-0.41,0.71-0.6,1.07
			c-0.05,0.1-0.1,0.19-0.15,0.29c-0.26,0.5-0.51,1-0.74,1.5c-0.02,0.04-0.04,0.08-0.06,0.13c-0.25,0.53-0.48,1.07-0.7,1.61
			c-0.02,0.06-0.04,0.11-0.07,0.17c-0.21,0.53-0.41,1.06-0.6,1.59c-0.02,0.07-0.05,0.14-0.07,0.21c-0.18,0.53-0.35,1.05-0.51,1.58
			c-0.02,0.08-0.05,0.16-0.07,0.24c-0.15,0.53-0.29,1.05-0.42,1.58c-0.02,0.08-0.04,0.16-0.06,0.24c-0.12,0.53-0.23,1.06-0.33,1.59
			c-0.01,0.08-0.03,0.15-0.04,0.23c-0.09,0.53-0.17,1.07-0.24,1.6c-0.01,0.07-0.02,0.14-0.02,0.21c-0.03,0.22-0.04,0.45-0.06,0.67
			l80.01,494.49c0.42,2.62,10.58,19.38,8.28,18.05l-7.23-6.13l8.5,52.55c0.42,2.62,10.58,19.38,8.28,18.05l-24.38-20.66
			c-5.16-4.37-8.59-10.45-9.67-17.12l-87.47-540.62c-0.42-2.62-1.06-6.55-1.06-6.55c-0.04-0.27-0.08-0.54-0.12-0.81
			c-0.03-0.23-0.05-0.46-0.07-0.7c0-0.01-0.01-0.03-0.01-0.04c0-0.03,0-0.06,0-0.09c-0.01-0.08-0.02-0.15-0.02-0.23
			c-0.03-0.33-0.05-0.65-0.06-0.98c-0.01-0.26-0.02-0.52-0.02-0.79c0-0.04,0-0.08,0-0.11c0-0.03,0-0.06,0-0.09
			c0-0.31,0-0.63,0.01-0.95c0.01-0.32,0.02-0.63,0.04-0.95c0-0.04,0.01-0.09,0.01-0.13c0-0.04,0.01-0.09,0.01-0.13
			c0.01-0.19,0.03-0.38,0.05-0.57l-8.31-51.34c-0.42-2.62-1.06-6.55-1.06-6.55c-0.04-0.27-0.08-0.54-0.12-0.81
			c-0.03-0.23-0.05-0.46-0.07-0.7c0-0.01-0.01-0.03-0.01-0.04c0-0.03,0-0.06,0-0.09c-0.01-0.08-0.02-0.15-0.02-0.23
			c-0.03-0.33-0.05-0.65-0.06-0.98c-0.01-0.26-0.02-0.52-0.02-0.79c0-0.04,0-0.08,0-0.11c0-0.03,0-0.06,0-0.09
			C2647.88,885.06,2647.89,884.74,2647.9,884.43z"/>
		<path class="st16" d="M2670.06,857.76l18.65,10.84c0.97,0.57,2.17,0.57,3.15,0l849.85-490.66l0,0l4.7-2.71
			c0.23-0.13,0.45-0.26,0.68-0.38c0.29-0.16,0.58-0.31,0.87-0.45c0.71-0.35,1.42-0.66,2.12-0.93c0.07-0.03,0.13-0.05,0.2-0.07
			c0.67-0.25,1.33-0.46,1.98-0.63c0.05-0.01,0.11-0.03,0.16-0.04c0.67-0.17,1.33-0.3,1.98-0.4c0.04-0.01,0.09-0.02,0.13-0.02
			c0.62-0.09,1.23-0.13,1.83-0.15c0.11,0,0.22-0.01,0.33-0.01c0.59-0.01,1.17,0.02,1.74,0.07c0.16,0.02,0.31,0.05,0.46,0.07
			c0.41,0.05,0.82,0.13,1.21,0.21c0.34,0.07,0.66,0.17,0.99,0.27c0.27,0.08,0.55,0.16,0.81,0.26c0.69,0.26,1.36,0.55,2,0.92
			l-24.92-14.48c-0.64-0.37-1.33-0.68-2.03-0.94c-0.06-0.02-0.11-0.06-0.17-0.08c-0.04-0.01-0.08-0.02-0.12-0.03
			c-0.54-0.19-1.1-0.34-1.67-0.46c-0.03-0.01-0.07-0.02-0.1-0.03c-0.15-0.03-0.31-0.04-0.47-0.07c-0.29-0.05-0.57-0.09-0.87-0.12
			c-0.06-0.01-0.12-0.02-0.18-0.03c-0.21-0.02-0.43-0.02-0.64-0.03c-0.18-0.01-0.36-0.02-0.54-0.03c-0.05,0-0.09-0.01-0.14-0.01
			c-0.4,0-0.8,0.01-1.21,0.04c0,0,0,0-0.01,0c-0.03,0-0.06,0.01-0.09,0.01c-0.34,0.03-0.69,0.06-1.03,0.11
			c-0.09,0.01-0.18,0.03-0.27,0.05c-0.12,0.02-0.23,0.04-0.35,0.06c-0.14,0.02-0.29,0.04-0.43,0.07c-0.28,0.05-0.56,0.12-0.85,0.19
			c-0.03,0.01-0.06,0.01-0.09,0.02l-0.01,0c-0.02,0-0.04,0.01-0.06,0.01c-0.33,0.08-0.65,0.17-0.98,0.27
			c-0.31,0.09-0.61,0.19-0.92,0.3c-0.31,0.11-0.61,0.22-0.92,0.35c-0.3,0.12-0.59,0.24-0.89,0.38c-0.3,0.13-0.59,0.27-0.89,0.42
			c-0.29,0.14-0.58,0.3-0.88,0.45c-0.13,0.07-1.28,0.73-2.24,1.28l-0.01,0.01l-1.26,0.73c-0.01,0.01-0.05,0.03-0.06,0.03l0,0
			l-848.53,489.9C2667.97,853.53,2667.97,856.55,2670.06,857.76z M3526.98,363.94L3526.98,363.94L3526.98,363.94L3526.98,363.94z"/>
		<g>
			<path class="st15" d="M2690.28,868.59c-11.62,6.71-19.42,22.12-17.42,34.45l90.45,558.99c1.98,12.33,13.02,16.87,24.64,10.16
				l856.11-494.28c11.62-6.71,19.42-22.12,17.42-34.45l-90.43-558.99c-2-12.32-13.02-16.87-24.64-10.16L2690.28,868.59z"/>
		</g>
		<g>
			<path class="st17" d="M2720.85,904.56c-11.02,6.24-18.49,19.68-16.69,30.01l81.8,468.96c1.79,10.35,12.19,13.66,23.21,7.41
				l812.02-460.01c11.02-6.24,18.49-19.68,16.69-30.01l-81.79-468.96c-1.81-10.34-12.19-13.66-23.21-7.41L2720.85,904.56z"/>
		</g>
		<g>
			<g>
				<path class="st18" d="M3637.89,920.92l-81.79-468.96c-1.81-10.34-12.19-13.66-23.21-7.41l-628.44,356.01L3637.89,920.92z"/>
			</g>
		</g>
		<line class="st19" x1="3675.34" y1="1028.01" x2="2796.83" y2="1535.04"/>
	</g>
	<g>
		<g>
			<path class="st16" d="M3644.91,1151.81c1.28,0.74,3.88,0.44,5.81-0.67l53.42-30.83c1.93-1.11,2.45-2.62,1.18-3.36l-35.38-20.44
				c-1.28-0.74-3.89-0.44-5.81,0.68l-53.42,30.82c-1.92,1.11-2.45,2.61-1.17,3.35L3644.91,1151.81z"/>
		</g>
		<g>
			<path class="st16" d="M3582.94,1243.84c1.29,0.75,3.88,0.45,5.83-0.67l53.41-30.82c1.92-1.11,2.44-2.6,1.15-3.35l-35.4-20.45
				c-1.26-0.73-3.85-0.43-5.77,0.68l-53.41,30.82c-1.95,1.13-2.45,2.62-1.2,3.35L3582.94,1243.84z"/>
		</g>
		<g>
			<path class="st16" d="M3614.27,1282.06c1.28,0.74,3.88,0.42,5.8-0.68l53.42-30.83c1.9-1.09,2.47-2.6,1.19-3.35l-35.4-20.45
				c-1.25-0.72-3.89-0.41-5.79,0.69l-53.42,30.83c-1.92,1.11-2.45,2.62-1.19,3.34L3614.27,1282.06z"/>
		</g>
		<g>
			<path class="st16" d="M3699.02,1289.43c1.26,0.73,3.87,0.43,5.78-0.67l53.42-30.83c1.9-1.1,2.43-2.61,1.17-3.34l-35.39-20.45
				c-1.27-0.73-3.9-0.43-5.8,0.67l-53.42,30.83c-1.91,1.1-2.42,2.61-1.15,3.35L3699.02,1289.43z"/>
		</g>
		<g>
			<path class="st16" d="M3846.02,1267.99c1.28,0.74,3.88,0.43,5.8-0.68l53.42-30.83c1.93-1.11,2.46-2.61,1.18-3.35l-41.56-24.01
				c-1.25-0.72-3.88-0.43-5.8,0.68l-53.42,30.83c-1.92,1.11-2.43,2.63-1.18,3.35L3846.02,1267.99z"/>
		</g>
		<g>
			<path class="st16" d="M3753.92,1321.13c1.28,0.74,4.36,0.15,6.9-1.31l69.98-40.39c2.51-1.45,3.53-3.24,2.26-3.97l-41.56-24.01
				c-1.25-0.72-4.37-0.14-6.88,1.3l-69.98,40.39c-2.54,1.46-3.52,3.26-2.28,3.98L3753.92,1321.13z"/>
		</g>
		<g>
			<path class="st16" d="M3294.17,1586.83c1.06,0.61,3.49,0.21,5.41-0.9l53.38-30.8c1.95-1.12,2.67-2.54,1.61-3.15l-15.36-8.88
				c-1.05-0.61-3.51-0.2-5.46,0.93l-53.38,30.8c-1.92,1.11-2.62,2.52-1.57,3.13L3294.17,1586.83z"/>
		</g>
		<g>
			<path class="st16" d="M3222.8,1629.09c1.06,0.61,3.49,0.21,5.41-0.9l53.38-30.8c1.95-1.12,2.67-2.54,1.61-3.15l-15.36-8.88
				c-1.05-0.61-3.51-0.2-5.46,0.93l-53.38,30.8c-1.92,1.11-2.62,2.52-1.57,3.13L3222.8,1629.09z"/>
		</g>
		<g>
			<path class="st16" d="M3147.13,1671.76c1.02,0.59,3.43,0.16,5.35-0.95l53.39-30.81c1.92-1.11,2.68-2.51,1.66-3.1l-14.8-8.55
				c-1.01-0.59-3.45-0.15-5.37,0.96l-53.39,30.81c-1.92,1.11-2.66,2.5-1.64,3.09L3147.13,1671.76z"/>
		</g>
		<g>
			<path class="st16" d="M3193.67,1612.8c1.02,0.59,3.43,0.16,5.35-0.95l53.39-30.81c1.92-1.11,2.68-2.51,1.66-3.1l-14.8-8.55
				c-1.01-0.59-3.45-0.15-5.37,0.96l-53.39,30.81c-1.92,1.11-2.66,2.5-1.64,3.09L3193.67,1612.8z"/>
		</g>
		<g>
			<path class="st16" d="M3386.49,1533.14c1.28,0.74,3.9,0.42,5.83-0.69l347.59-200.59c1.9-1.09,2.46-2.62,1.19-3.36l-41.56-24.01
				c-1.25-0.72-3.91-0.41-5.81,0.68l-347.59,200.59c-1.93,1.11-2.46,2.64-1.21,3.37L3386.49,1533.14z"/>
		</g>
		<g>
			<path class="st16" d="M3763.45,1307.88c0.08,0.05,0.33-0.02,0.56-0.16l40.83-23.56c0.22-0.13,0.35-0.27,0.27-0.32l-2.58-1.49
				c-0.08-0.04-0.33,0.03-0.55,0.15l-40.83,23.56c-0.23,0.13-0.35,0.28-0.27,0.32L3763.45,1307.88z"/>
		</g>
		<g>
			<path class="st16" d="M3868.15,1242.96c0.08,0.05,0.22,0.04,0.32-0.02l17.33-10c0.09-0.05,0.11-0.14,0.03-0.18l-2.58-1.49
				c-0.08-0.04-0.22-0.04-0.32,0.02l-17.33,10c-0.1,0.06-0.11,0.14-0.03,0.18L3868.15,1242.96z"/>
		</g>
		<g>
			<path class="st16" d="M3625.8,1331.65c1.26,0.73,3.87,0.43,5.81-0.68l53.41-30.82c1.9-1.09,2.45-2.62,1.19-3.35l-35.4-20.45
				c-1.27-0.73-3.92-0.42-5.82,0.68l-53.41,30.82c-1.94,1.12-2.45,2.63-1.18,3.36L3625.8,1331.65z"/>
		</g>
		<g>
			<path class="st16" d="M3552.26,1374.09c1.26,0.73,3.89,0.42,5.78-0.67l53.41-30.82c1.92-1.11,2.46-2.63,1.19-3.36l-35.39-20.45
				c-1.27-0.73-3.91-0.42-5.82,0.68l-53.41,30.82c-1.9,1.09-2.42,2.61-1.15,3.35L3552.26,1374.09z"/>
		</g>
		<g>
			<path class="st16" d="M3478.71,1416.54c1.26,0.73,3.88,0.43,5.78-0.67l53.42-30.83c1.91-1.1,2.43-2.61,1.16-3.34l-35.4-20.45
				c-1.27-0.73-3.89-0.44-5.8,0.66l-53.42,30.83c-1.91,1.1-2.42,2.61-1.15,3.35L3478.71,1416.54z"/>
		</g>
		<g>
			<path class="st16" d="M3405.15,1458.98c1.26,0.73,3.87,0.44,5.79-0.67l53.42-30.83c1.93-1.11,2.45-2.62,1.19-3.35l-35.4-20.45
				c-1.27-0.73-3.89-0.44-5.82,0.68l-53.42,30.83c-1.92,1.11-2.43,2.61-1.16,3.35L3405.15,1458.98z"/>
		</g>
		<g>
			<path class="st16" d="M3331.59,1501.43c1.26,0.73,3.9,0.42,5.83-0.7l53.4-30.82c1.91-1.1,2.43-2.61,1.16-3.34l-35.4-20.45
				c-1.27-0.73-3.89-0.44-5.8,0.66l-53.4,30.82c-1.93,1.11-2.47,2.64-1.2,3.37L3331.59,1501.43z"/>
		</g>
		<g>
			<path class="st16" d="M3258.04,1543.85c1.26,0.73,3.89,0.43,5.8-0.68l53.4-30.82c1.92-1.11,2.45-2.62,1.19-3.35l-35.4-20.45
				c-1.27-0.73-3.9-0.43-5.82,0.68l-53.4,30.82c-1.92,1.11-2.44,2.62-1.17,3.36L3258.04,1543.85z"/>
		</g>
		<g>
			<path class="st16" d="M3092.37,1639.45c1.26,0.73,3.88,0.43,5.8-0.68l145.52-83.98c1.92-1.11,2.44-2.62,1.18-3.35l-35.39-20.45
				c-1.27-0.73-3.89-0.44-5.81,0.67l-145.53,83.98c-1.92,1.11-2.44,2.62-1.17,3.35L3092.37,1639.45z"/>
		</g>
		<g>
			<path class="st16" d="M3541.11,1320.11c1.28,0.74,3.84,0.45,5.77-0.67l53.42-30.83c1.92-1.11,2.46-2.6,1.17-3.34l-35.4-20.45
				c-1.25-0.72-3.86-0.43-5.78,0.68l-53.42,30.83c-1.93,1.11-2.42,2.6-1.17,3.33L3541.11,1320.11z"/>
		</g>
		<g>
			<path class="st16" d="M3467.51,1366.71c1.28,0.74,3.88,0.42,5.78-0.68l53.44-30.84c1.9-1.1,2.44-2.59,1.16-3.33l-35.4-20.45
				c-1.25-0.72-3.86-0.43-5.76,0.67l-53.44,30.84c-1.9,1.1-2.43,2.61-1.18,3.33L3467.51,1366.71z"/>
		</g>
		<g>
			<path class="st16" d="M3393.96,1409.16c1.28,0.74,3.89,0.42,5.8-0.68l53.41-30.82c1.89-1.09,2.48-2.61,1.2-3.35l-35.4-20.45
				c-1.25-0.72-3.91-0.4-5.8,0.69l-53.41,30.82c-1.91,1.1-2.45,2.62-1.19,3.34L3393.96,1409.16z"/>
		</g>
		<g>
			<path class="st16" d="M3320.42,1451.6c1.28,0.74,3.87,0.43,5.79-0.68l53.4-30.82c1.92-1.11,2.47-2.6,1.19-3.35l-35.4-20.45
				c-1.25-0.72-3.86-0.42-5.79,0.69l-53.4,30.82c-1.92,1.11-2.44,2.61-1.19,3.34L3320.42,1451.6z"/>
		</g>
		<g>
			<path class="st16" d="M3246.84,1494.02c1.28,0.74,3.88,0.42,5.79-0.68l53.44-30.84c1.92-1.11,2.45-2.6,1.17-3.34l-35.4-20.45
				c-1.25-0.72-3.85-0.43-5.77,0.68l-53.44,30.84c-1.91,1.1-2.44,2.61-1.19,3.34L3246.84,1494.02z"/>
		</g>
		<g>
			<path class="st16" d="M3173.31,1536.45c1.28,0.74,3.86,0.43,5.78-0.67l53.39-30.81c1.94-1.12,2.48-2.61,1.2-3.36l-35.4-20.45
				c-1.25-0.72-3.86-0.42-5.8,0.7l-53.4,30.81c-1.92,1.11-2.43,2.61-1.18,3.33L3173.31,1536.45z"/>
		</g>
		<g>
			<path class="st16" d="M3099.76,1578.9c1.28,0.74,3.87,0.43,5.78-0.67l53.44-30.84c1.91-1.1,2.44-2.59,1.15-3.33l-35.4-20.45
				c-1.25-0.72-3.85-0.43-5.75,0.67l-53.44,30.84c-1.91,1.1-2.43,2.61-1.18,3.33L3099.76,1578.9z"/>
		</g>
		<g>
			<path class="st16" d="M3509.73,1286.06c1.29,0.75,3.89,0.44,5.82-0.67l53.41-30.82c1.9-1.1,2.42-2.6,1.13-3.34l-35.4-20.45
				c-1.26-0.73-3.86-0.43-5.76,0.67l-53.42,30.82c-1.93,1.11-2.45,2.62-1.19,3.34L3509.73,1286.06z"/>
		</g>
		<g>
			<path class="st16" d="M3436.2,1328.49c1.29,0.75,3.9,0.44,5.8-0.66l53.41-30.82c1.92-1.11,2.45-2.61,1.16-3.36l-35.4-20.45
				c-1.26-0.73-3.87-0.42-5.79,0.69l-53.41,30.82c-1.9,1.1-2.43,2.61-1.17,3.33L3436.2,1328.49z"/>
		</g>
		<g>
			<path class="st16" d="M3362.64,1370.94c1.29,0.75,3.89,0.44,5.83-0.67l53.41-30.82c1.91-1.1,2.43-2.6,1.14-3.35l-35.4-20.45
				c-1.26-0.73-3.86-0.43-5.77,0.67l-53.41,30.82c-1.94,1.12-2.45,2.62-1.2,3.35L3362.64,1370.94z"/>
		</g>
		<g>
			<path class="st16" d="M3289.11,1413.38c1.29,0.75,3.87,0.46,5.8-0.66l53.42-30.83c1.92-1.11,2.45-2.61,1.16-3.36l-35.4-20.45
				c-1.26-0.73-3.87-0.42-5.79,0.69l-53.42,30.83c-1.93,1.11-2.43,2.61-1.17,3.33L3289.11,1413.38z"/>
		</g>
		<g>
			<path class="st16" d="M3215.54,1455.8c1.29,0.75,3.9,0.44,5.79-0.65l53.42-30.83c1.93-1.11,2.44-2.61,1.15-3.36l-35.4-20.45
				c-1.26-0.73-3.85-0.43-5.78,0.68l-53.42,30.83c-1.89,1.09-2.41,2.6-1.16,3.32L3215.54,1455.8z"/>
		</g>
		<g>
			<path class="st16" d="M3141.97,1498.25c1.29,0.75,3.9,0.44,5.84-0.68l53.41-30.82c1.89-1.09,2.44-2.6,1.15-3.35l-35.4-20.45
				c-1.26-0.73-3.88-0.42-5.77,0.68l-53.41,30.82c-1.94,1.12-2.46,2.63-1.21,3.35L3141.97,1498.25z"/>
		</g>
		<g>
			<path class="st16" d="M3068.44,1540.69c1.29,0.75,3.9,0.44,5.8-0.66l53.42-30.83c1.92-1.11,2.44-2.61,1.15-3.36l-35.4-20.45
				c-1.26-0.73-3.86-0.43-5.78,0.68l-53.42,30.83c-1.91,1.1-2.43,2.61-1.17,3.33L3068.44,1540.69z"/>
		</g>
		<g>
			<path class="st16" d="M3656.48,1201.4c1.29,0.75,3.9,0.44,5.82-0.67l90.57-52.27c1.93-1.11,2.46-2.62,1.17-3.36l-35.4-20.45
				c-1.26-0.73-3.87-0.42-5.79,0.69l-90.57,52.26c-1.93,1.11-2.45,2.62-1.2,3.35L3656.48,1201.4z"/>
		</g>
		<g>
			<path class="st16" d="M2946.15,1554.98c1.28,0.74,3.88,0.44,5.81-0.67l90.57-52.27c1.89-1.09,2.44-2.61,1.16-3.35l-35.38-20.44
				c-1.28-0.74-3.91-0.42-5.8,0.67l-90.57,52.27c-1.92,1.11-2.45,2.61-1.17,3.35L2946.15,1554.98z"/>
		</g>
		<g>
			<path class="st16" d="M3687.83,1239.6c1.28,0.74,3.85,0.44,5.8-0.68l107.97-62.31c1.93-1.11,2.47-2.61,1.19-3.35l-35.4-20.45
				c-1.25-0.72-3.86-0.42-5.79,0.69l-107.97,62.31c-1.94,1.12-2.45,2.62-1.19,3.34L3687.83,1239.6z"/>
		</g>
		<g>
			<path class="st16" d="M3772.55,1247c1.26,0.73,3.88,0.43,5.8-0.68l71.99-41.54c1.93-1.11,2.45-2.62,1.18-3.35l-35.4-20.45
				c-1.27-0.73-3.89-0.44-5.82,0.68l-71.99,41.55c-1.92,1.11-2.44,2.62-1.17,3.36L3772.55,1247z"/>
		</g>
		<g>
			<path class="st16" d="M3571.37,1194.24c1.28,0.74,3.87,0.44,5.82-0.68l53.38-30.8c1.92-1.11,2.45-2.62,1.18-3.36l-35.38-20.44
				c-1.28-0.74-3.89-0.43-5.81,0.68l-53.38,30.8c-1.95,1.12-2.47,2.62-1.18,3.36L3571.37,1194.24z"/>
		</g>
		<g>
			<path class="st16" d="M3498.15,1236.46c1.28,0.74,3.89,0.43,5.82-0.68l53.42-30.83c1.91-1.1,2.45-2.62,1.17-3.35l-35.38-20.44
				c-1.28-0.74-3.9-0.43-5.81,0.67l-53.42,30.83c-1.92,1.11-2.46,2.62-1.18,3.36L3498.15,1236.46z"/>
		</g>
		<g>
			<path class="st16" d="M3424.63,1278.89c1.28,0.74,3.86,0.45,5.79-0.66l53.42-30.83c1.91-1.1,2.44-2.61,1.16-3.35l-35.38-20.44
				c-1.28-0.74-3.89-0.44-5.8,0.67l-53.42,30.82c-1.93,1.11-2.43,2.6-1.15,3.34L3424.63,1278.89z"/>
		</g>
		<g>
			<path class="st16" d="M3351.06,1321.35c1.28,0.74,3.89,0.43,5.81-0.68l53.38-30.81c1.94-1.12,2.46-2.62,1.18-3.36l-35.38-20.44
				c-1.28-0.74-3.88-0.44-5.82,0.68l-53.38,30.81c-1.92,1.11-2.46,2.61-1.18,3.36L3351.06,1321.35z"/>
		</g>
		<g>
			<path class="st16" d="M3277.53,1363.78c1.28,0.74,3.85,0.46,5.78-0.66l53.4-30.82c1.94-1.12,2.46-2.62,1.18-3.36l-35.38-20.44
				c-1.28-0.74-3.88-0.44-5.82,0.68l-53.4,30.82c-1.94,1.12-2.43,2.6-1.15,3.34L3277.53,1363.78z"/>
		</g>
		<g>
			<path class="st16" d="M3203.95,1406.21c1.28,0.74,3.89,0.43,5.79-0.67l53.44-30.84c1.91-1.1,2.43-2.6,1.15-3.34l-35.38-20.44
				c-1.28-0.74-3.88-0.44-5.78,0.66l-53.44,30.84c-1.9,1.1-2.44,2.6-1.16,3.34L3203.95,1406.21z"/>
		</g>
		<g>
			<path class="st16" d="M3130.4,1448.65c1.28,0.74,3.89,0.44,5.81-0.68l53.41-30.82c1.93-1.11,2.47-2.62,1.19-3.36l-35.38-20.44
				c-1.28-0.74-3.89-0.43-5.83,0.68l-53.41,30.82c-1.92,1.11-2.46,2.61-1.17,3.35L3130.4,1448.65z"/>
		</g>
		<g>
			<path class="st16" d="M3056.87,1491.08c1.28,0.74,3.87,0.44,5.78-0.66l53.45-30.85c1.9-1.1,2.42-2.6,1.14-3.33l-35.38-20.44
				c-1.28-0.74-3.88-0.44-5.78,0.66l-53.45,30.85c-1.91,1.1-2.42,2.59-1.14,3.33L3056.87,1491.08z"/>
		</g>
		<g>
			<path class="st16" d="M3014.1,1528.51c0.88-0.51,1.97-0.89,3.13-1.02c1.13-0.14,2.03,0.01,2.63,0.36l35.4,20.45
				c0.59,0.34,0.87,0.88,0.64,1.53c-0.25,0.65-0.89,1.3-1.77,1.81l-13.94,8.05l46.42,26.81c0.6,0.35,0.84,0.9,0.6,1.54
				c-0.23,0.65-0.89,1.29-1.79,1.81l-35.98,20.77c-0.91,0.52-2,0.9-3.15,1.04c-1.13,0.14-2.07,0-2.67-0.35l-84.14-48.61
				c-0.59-0.34-0.83-0.88-0.59-1.53c0.22-0.67,0.89-1.3,1.8-1.82L3014.1,1528.51z"/>
		</g>
		<g>
			<path class="st16" d="M3782.12,1229.75c0.08,0.05,0.33-0.02,0.56-0.16l40.83-23.56c0.22-0.13,0.35-0.27,0.27-0.32l-2.58-1.49
				c-0.08-0.04-0.33,0.03-0.55,0.15l-40.83,23.56c-0.23,0.13-0.35,0.28-0.27,0.32L3782.12,1229.75z"/>
		</g>
	</g>
	<path class="st16" d="M3569.1,1571.58l192.89-108.21c2.23-1.25,2.19-3.35-0.1-4.67l-81.97-47.19c-2.29-1.32-5.98-1.37-8.22-0.12
		l-192.89,108.21c-2.23,1.25-2.19,3.35,0.1,4.67l81.97,47.19C3563.17,1572.78,3566.87,1572.83,3569.1,1571.58z"/>
	<path class="st7" d="M2851.31,1354.28l708.5-409.05c11.71-6.76,19.11-25.01,16.55-40.76l-61.57-377.85
		c-2.57-15.76-14.14-23.05-25.84-16.29l-708.5,409.05c-11.71,6.76-19.11,25.01-16.55,40.76l61.57,377.85
		C2828.04,1353.74,2839.61,1361.04,2851.31,1354.28z"/>
	<path class="st15" d="M2770.77,1002.33l-7.52-46.17c-2.21-13.56,7.03-30.92,20.63-38.77l701.64-405.09
		c13.6-7.85,26.42-3.23,28.63,10.33l7.52,46.17L2770.77,1002.33z"/>
	<path class="st20" d="M2909.84,884.9c1.28,5.71,6.28,8.06,11.16,5.24c4.88-2.82,7.8-9.73,6.52-15.45
		c-1.28-5.71-6.28-8.06-11.16-5.24C2911.47,872.27,2908.56,879.18,2909.84,884.9z"/>
	<path class="st20" d="M2874.14,905.51c1.28,5.71,6.28,8.06,11.16,5.24c4.88-2.82,7.8-9.73,6.52-15.45
		c-1.28-5.71-6.28-8.06-11.16-5.24C2875.77,892.88,2872.85,899.8,2874.14,905.51z"/>
	<path class="st20" d="M2838.43,926.12c1.28,5.71,6.28,8.06,11.16,5.24s7.8-9.73,6.52-15.45c-1.28-5.71-6.28-8.06-11.16-5.24
		C2840.07,913.49,2837.15,920.41,2838.43,926.12z"/>
	<polygon class="st21" points="5092.04,1498.07 5100,2428.57 3418.88,2428.57 	"/>
	<polygon class="st1" points="5089.29,1381.51 5069.23,1629.35 3749.29,2428.57 3405.08,2428.57 	"/>
	<g>
		<path class="st22" d="M3499.17,669.09L3499.17,669.09L3499.17,669.09z"/>
	</g>
	<g>
	</g>
	<polygon class="st1" points="885.22,0 0,423.5 0,1.72 	"/>
	<polyline class="st23" points="3376.22,740.98 3393.07,755.25 3409.51,715.26 	"/>
	<g>
		<path class="st4" d="M3668.75,1329.64c1.74-10.73,23.23-19.36,51.26-26.14c-9.73-3.05-16.57-9.32-17.85-20.16
			c0,0,16.8-5.62,37.77-10.85c-4.16-3.51-6.92-8.37-7.69-14.86c0,0,53.87-18.04,89.14-19.51c12.16-1.13,39.99-2.23,73.94,6.21
			c34.08,8.47,45.73,22.87,121.34,68.85l398.99,88.62l-52.61,195.16l-394.69-172.38l-49.25,6.17l-92.46-22.91
			c0,0-51.96,3.71-55.12-17.99c-3.52-24.18,57.29-14.27,57.29-14.27l44.67,5.86c12.82-0.09,18.58,0.09,20.7-12.21
			c1.26-7.32-8-12.33-8.29-13.7c-0.67-3.25-108.05-21.27-108.05-21.27S3661.83,1372.31,3668.75,1329.64z"/>
		<path class="st4" d="M3818.85,1971.25c-229.14-28.23-633.42-293.41-633.42-293.41l114.27-93.37l485.79,209.67L3818.85,1971.25z"/>
		<g>
			<path class="st24" d="M4070.94,1918.96c-56.21,50.06-72.93,82.97-155.26,72.15c-107.27-14.09-466.9-212.02-561.18-285.95
				c-36.93-28.96-7.67-123.92,36.18-106.82c104.78,40.87,405.71,170.4,504.1,185.6c8.58,1.33,91.24-4.8,95.23-7.05
				C3997.51,1772.66,4148.7,1849.71,4070.94,1918.96z"/>
		</g>
		<path class="st24" d="M4656.01,1193.02l-138.2-255.45c-19.63-55.27-38.87-99.65-94.14-80.02l-16.36,5.81
			c-55.27,19.63-111.04,82.43-91.41,137.69l112.04,271.8C4447.57,1328.14,4675.64,1248.29,4656.01,1193.02z"/>
		<g>
			<path class="st24" d="M3777.84,1268.26c0,0-116.01,38.05-109.09-4.62c1.74-10.73,23.23-19.36,51.25-26.14
				c-9.73-3.05-16.57-9.32-17.85-20.16c0,0,16.8-5.62,37.77-10.85c-4.16-3.51-6.92-8.37-7.69-14.86c0,0,53.87-18.04,89.14-19.51
				c12.16-1.13,39.99-2.23,73.94,6.21c34.93,8.69,46.26,23.57,127.08,72.33c0,0-2.99,2.7-7.66,6.51c14.99,7.34,24.43,23.19,23,40.39
				l-0.16,1.97c-2.46,29.67-25.37,53.56-54.91,57.26l-63.57,7.96l-92.46-22.91c0,0-51.96,3.71-55.12-17.99
				c-3.52-24.18,57.29-14.27,57.29-14.27l44.67,5.86c12.82-0.09,18.58,0.09,20.7-12.21c1.26-7.31-8-12.33-8.29-13.7
				C3885.22,1286.29,3777.84,1268.26,3777.84,1268.26z"/>
			<polyline class="st25" points="3720,1237.51 3784.06,1221.47 3894.77,1255.83 			"/>
			<path class="st25" d="M3739.92,1206.5c3.73-3.15,65.03-18.9,65.03-18.9l110.73,34.28"/>
		</g>
		<polygon class="st24" points="4016.64,1247.19 4415.64,1335.81 4363.03,1530.97 3955.31,1352.9 		"/>
		<g>
			<g>
				<g>
					<path class="st26" d="M4268.73,1322.15c54.95-24.7,102.06-53.72,145.53-84.33c249.45-28.46,235.45-146.75,235.45-146.75
						c117.25-46.42,202.94,32.51,266.23,212.65c30.1,85.69,110.24,497.1,110.24,497.1c0.01,0.07,48.82,558.65-0.82,576.31
						l-678.42,41.07c0,0,20.41-206.43,7.55-352.31c-6.61-75-105.77-249.89-135.08-298.85c-2-3.33-32.91,47.01-33.92,44.39
						c-18.37-47.89-13.25-95.52,10.77-145.54C4150.26,1567.4,4102.05,1397.09,4268.73,1322.15z"/>
				</g>
			</g>
		</g>
		<g>
			<g>
				<g>
					<path class="st26" d="M4416.63,1590.79l-333.59,332.36c-107.96,79.09-252.32-98.55-168.6-171.02l271.03-370.57
						c51.58-63.26,151.12-64.57,192.69-18.14v0C4421.49,1411.81,4466.69,1535.65,4416.63,1590.79z"/>
				</g>
			</g>
		</g>
		<g>
			<path class="st24" d="M3162.55,1440.36c-0.26,0.3-6.4,7.46-3.04,18.21c0.02,0.08,0.05,0.15,0.07,0.23
				c6.2,19.16,37.94,36.03,94.38,50.15c1.85,0.94,8.28,5.49,17.09,11.95c-19.24-3.28-42.09-0.99-57.92,6.84
				c-62.74,31.03-84.88,57.5-85.79,58.61l-1.24,1.51l0.3,1.93c0.11,0.73,1.34,7.22,9.17,10.78c15.32,6.97,44.2-2.77,85.84-28.95
				c11.19-7.04,25.61-7.94,43.02-2.71c-11.49-1.39-22.74,0.38-31.84,5.14c-28.43,14.88-80.9,58.34-83.12,60.19l-2.09,1.73l0.64,2.64
				c0.15,0.66,1.76,6.52,9.29,9.44c2.63,1.02,5.64,1.54,9,1.57c-0.88,0.51-1.36,0.79-1.36,0.79l-3.83,2.23l2.28,3.79
				c16.81,27.97,47.82,10.99,70.47-1.42c2.92-1.6,5.78-3.17,8.53-4.61c10.65-5.57,26.81-9.55,37.35-2.47
				c29.09,19.55,49.1,36,56.34,46.32c1.78,2.54,20.9,20.24,23.43,23.03c47.85,52.72,112.89-6.57,97.78-77.17
				c-56.54-55.48-125.66-148.71-170.56-161.81l-0.57-0.42l-121.74-39.69L3162.55,1440.36z"/>
			<polyline class="st25" points="3171.85,1647.67 3267.16,1598.15 3316.38,1624.4 			"/>
			<line class="st25" x1="3264.44" y1="1568.91" x2="3299.7" y2="1584.48"/>
		</g>
		<path class="st20" d="M4322.21,1295.57c218.21-43.42,352.46,102.27,371.61-216.28c0,0-59.7-6-78.06,26
			c-32.23,56.19-34.45,87.07-125.28,86.44c-47.03-0.33-107.22-2.52-120.93,20.6L4322.21,1295.57z"/>
		<path class="st16" d="M4190.97,1813.61l-107.92,107.52c-39.19,28.71-83.17,23.57-119.3,1.93c74.13-5.02,110.87-55.16,196.53-138.3
			C4174.12,1771.33,4190.97,1813.61,4190.97,1813.61z"/>
		<path class="st24" d="M4170.61,681.27c0,0-48.89,60.74-36.46,127.72c2.37,12.76,8.99,44.45,12.56,59.2
			c8.49,35.11,0,37-10.43,72.53c-1.16,3.96-9.9,16.98-19.98,42.74c-1.77,4.54-1.68,9.61,0.29,14.06
			c4.22,9.51,14.24,23.55,37.4,20.13c10.12-1.5,12.01,14,17.39,36.2c8.5,35.13,23.51,70.76,42.59,82.5
			c36.72,22.6,164.66-24.07,164.66-24.07l37.31-229.49L4170.61,681.27z"/>
		<path class="st27" d="M4386.99,1173.23c0,0,21.72-59.88,10.65-87.4c-8.32,13.67-18.57,25.67-33.07,32.99L4386.99,1173.23z"/>
		<path class="st28" d="M4177.14,911.19c1.98,9.24,6.27,16.16,9.57,15.45c3.3-0.71,4.37-8.78,2.39-18.02
			c-1.98-9.24-6.27-16.16-9.57-15.45C4176.22,893.88,4175.16,901.95,4177.14,911.19z"/>
		<path class="st16" d="M4226.45,1788.3c0,0,115.92,198,123.19,255.53c7.27,57.53-2.71,374.37-2.71,374.37l68.71-0.47l97.64-296.94
			l-157.45-473.32c-9.82-29.53-50.92,15.09-73.91,36.06l-127.27,105.9l36.32,24.16L4226.45,1788.3z"/>
		<path class="st29" d="M4176.19,994.59c0,0,2.22,12.41-7.45,20.17"/>
		<path class="st30" d="M4357.43,1637.02c0,0,141.9-195.09-35.22-333.3"/>
		<path class="st31" d="M4535.76,991.13c19.73-6.37,33.51-24.21,34.63-44.92c3.28-60.52,4.96-186.74-30.45-265.24
			c-47.9-106.21-311.96,42.15-311.96,42.15l170.88,275.07c2.82,4.54,7.67,8.95,13.66,12.91c25.15,16.58,57.7,16.89,83.95,2.13
			L4535.76,991.13z"/>
		<path class="st32" d="M4137.53,827.2c0.59,6.93-91.08-170.95,91.45-241.16c292.89-112.65,320.56,129.89,320.56,129.89
			s-109.62,104.97-268.78,47.65c-37.83,30.34-119.42,32.99-143.06,13.47C4137.69,777.04,4134.16,787.92,4137.53,827.2z"/>
		<path class="st31" d="M4220.23,860.49c-13.41-1.45-38.79,1.7-51.89,3.73c-29.96,4.63-29.52-27.51-3.4-29.35
			c25.27-1.78,34.96-4.19,52.76,2.59C4239.56,845.8,4225.75,861.09,4220.23,860.49z"/>
		
			<ellipse transform="matrix(0.9963 -0.0855 0.0855 0.9963 -62.3011 378.1412)" class="st24" cx="4382.67" cy="916.28" rx="44.58" ry="64.6"/>
		<path class="st27" d="M4175.81,1054.8c22.74-2.77,14.55-4.53,48.87-7.19c0,0-8.51,22.2-40.69,31.69
			C4176.58,1081.48,4170.96,1055.39,4175.81,1054.8z"/>
		<polygon class="st33" points="4454.74,2246.94 4351.51,2222.86 4351.15,2064.14 3875.7,2352.03 4161.51,2428.57 4415.64,2428.57 
					"/>
		<path class="st15" d="M4696.18,2254.14c-147.26,27.12-296.91,57.25-376.85,0c-36.76-24.66-5.9-54.38,18.5-41.89
			c101.29,38.44,220.72,12.71,358.35-6.27c12.04,0,21.8,9.76,21.8,21.8v4.55C4717.98,2244.38,4708.22,2254.14,4696.18,2254.14z"/>
		<path class="st16" d="M4107.59,1898.21c0,0-135.23-104.37-152.28-169.48c-17.05-65.12-61.48,8.75-61.48,8.75
			s-34.29,94.46,15.22,146.9C3958.56,1936.81,4014.2,2027.94,4107.59,1898.21z"/>
	</g>
	<g>
		<path class="st4" d="M3343.73,2214.95l144.86-83.63c9.15-5.28,7.99-14.59-2.57-20.69l-274.32-158.38
			c-10.56-6.1-26.69-6.77-35.83-1.49L3031,2034.4c-9.15,5.28-7.99,14.59,2.57,20.69l274.32,158.38
			C3318.45,2219.56,3334.58,2220.23,3343.73,2214.95z"/>
		<path class="st7" d="M2995.87,2047.41l0.01-0.2c0-0.03,0-0.05,0-0.08l0.57-12.97l10.17,1.73l140.28-80.99
			c9.15-5.28,25.27-4.61,35.84,1.49l268.28,154.89l15.36,2.6l-0.58,12.56l-0.02,0c0.01,3.38-1.99,6.62-6.15,9.02l-144.86,83.63
			c-9.15,5.28-25.27,4.61-35.83-1.49l-274.32-158.38c-5.83-3.37-8.78-7.71-8.73-11.81L2995.87,2047.41z"/>
		<path class="st15" d="M3315.34,2206.53l144.86-83.63c9.15-5.28,7.99-14.59-2.57-20.69l-274.32-158.38
			c-10.56-6.1-26.69-6.77-35.83-1.49l-144.86,83.63c-9.15,5.28-7.99,14.59,2.57,20.69l274.32,158.38
			C3290.07,2211.15,3306.2,2211.81,3315.34,2206.53z"/>
		<polygon class="st34" points="3278.31,2204.36 3458.87,2102.97 3181.32,1942.78 3003.21,2045.41 		"/>
		<polygon class="st33" points="3369.41,2065.06 3176.96,1953.98 3053.45,2025.15 		"/>
	</g>
	<g>
		<path class="st4" d="M2771.16,2338.87l-53.1-30.66l-39.62-22.88c-8.29-4.78-26.89-7.52-42.3,1.37
			c-9.63,5.56-11.07,12.28-11.07,15.79c0,5.47,3.33,10.8,8.7,13.89l62.98,36.36c0.72,0.41,1.5,0.61,2.27,0.61
			c1.57,0,3.11-0.82,3.95-2.28c1.26-2.18,0.51-4.97-1.67-6.22l-62.98-36.36c-2.55-1.47-4.14-3.77-4.14-6c0-2.67,2.32-5.47,6.52-7.9
			c12.13-7,26.97-4.96,33.19-1.37l7.04,4.06c-3.63,0.75-7.13,2.01-10.18,3.77c-5.84,3.37-9.19,8.19-9.19,13.21
			c0,4.46,2.54,8.38,7.16,11.05l67.51,38.98c3.98,2.3,9.2,3.43,14.62,3.43c6.35,0,13-1.56,18.28-4.61c5.84-3.37,9.2-8.19,9.2-13.21
			C2778.32,2345.46,2775.78,2341.53,2771.16,2338.87z M2764.57,2355.23c-6.88,3.97-17.99,4.52-23.79,1.17l-67.51-38.98
			c-0.97-0.56-2.6-1.72-2.6-3.16c0-1.22,1.21-3.34,4.64-5.32c2.46-1.42,5.46-2.4,8.56-2.92c0.38,0.62,0.9,1.16,1.57,1.55
			l59.68,34.46c0.72,0.41,1.5,0.61,2.27,0.61c1.57,0,3.11-0.82,3.95-2.28c0.38-0.66,0.56-1.38,0.59-2.09l14.68,8.47
			c0.97,0.56,2.6,1.72,2.6,3.16C2769.21,2351.13,2767.99,2353.25,2764.57,2355.23z"/>
		<g>
			<g>
				<path class="st35" d="M2742.83,2328.86c-0.77,0-1.56-0.2-2.27-0.61l-59.68-34.46c-2.18-1.26-2.93-4.04-1.67-6.22
					c1.26-2.18,4.04-2.93,6.22-1.67l59.68,34.46c2.18,1.26,2.93,4.04,1.67,6.22C2745.94,2328.04,2744.41,2328.86,2742.83,2328.86z"
					/>
			</g>
		</g>
		<g>
			<g>
				<g>
					<g>
						<path class="st36" d="M2746.29,2353.94c-5.42,0-10.63-1.13-14.62-3.43l-67.51-38.98c-4.62-2.67-7.16-6.59-7.16-11.05
							c0-5.02,3.35-9.83,9.19-13.21c9.8-5.66,24.25-6.17,32.9-1.17l67.51,38.98l0,0c4.62,2.67,7.16,6.59,7.16,11.05
							c0,5.02-3.35,9.83-9.19,13.21C2759.28,2352.38,2752.64,2353.94,2746.29,2353.94z M2684.58,2291.8
							c-4.82,0-9.99,1.15-13.83,3.37c-3.42,1.98-4.64,4.1-4.64,5.32c0,1.44,1.63,2.6,2.6,3.16l67.51,38.98
							c5.79,3.35,16.91,2.8,23.79-1.17c3.42-1.98,4.64-4.1,4.64-5.32c0-1.44-1.63-2.6-2.6-3.16l-67.51-38.98
							C2691.98,2292.51,2688.38,2291.8,2684.58,2291.8z"/>
					</g>
				</g>
			</g>
		</g>
		<g>
			<g>
				<path class="st36" d="M2694.47,2339.57c-0.77,0-1.56-0.2-2.27-0.61l-62.98-36.36c-5.36-3.1-8.7-8.42-8.7-13.89
					c0-3.51,1.44-10.23,11.07-15.79c15.4-8.9,34.01-6.16,42.3-1.37l62.98,36.36c2.18,1.26,2.93,4.04,1.67,6.22
					c-1.26,2.18-4.04,2.93-6.22,1.67l-62.98-36.36c-6.21-3.59-21.05-5.63-33.18,1.37c-4.2,2.43-6.52,5.23-6.52,7.9
					c0,2.23,1.59,4.53,4.14,6l62.98,36.36c2.18,1.26,2.93,4.04,1.67,6.22C2697.57,2338.76,2696.04,2339.57,2694.47,2339.57z"/>
			</g>
		</g>
	</g>
	<g>
		<g>
			<g>
				<path class="st4" d="M1911.36,1872.02l148.87-47.79c4.72-1.51,9.27-3.5,13.59-5.93l325.9-183.18
					c11.9-6.69,12.11-23.74,0.38-30.72l-98.84-58.79L1911.36,1872.02z"/>
				<g>
					<path class="st37" d="M1583.78,1674.25l445.1-254.96l0.81-86.8l-444.99,243.67C1573.9,1606.11,1573.17,1638.7,1583.78,1674.25z
						"/>
					<path class="st38" d="M2356.33,1599.85l-12.68-0.12l0,0.18l-309.12-182.36c-1.82-1.08-4.08-1.1-5.93-0.06l-436.51,246.58
						l0.04-4.03l-11.76,1.18c0,0,1.94,10.37,2.51,12.05c0.99,2.9,1.79,6.9,3.79,8.08l318.76,190.61c1.82,1.08,4.08,1.1,5.92,0.06
						l441.86-256.14c1.91-1.08,2.89-2.96,2.98-4.88l0.03,0L2356.33,1599.85z"/>
					<path class="st37" d="M1910.73,1558.73l-318.43,83.28l-0.17,18.04l-11.76,1.18c0,0,1.94,10.37,2.51,12.05
						c0.99,2.9,1.79,6.9,3.79,8.08l318.76,190.61c1.01,0.6,2.16,0.87,3.3,0.81C1909.64,1872.73,1912.57,1557.69,1910.73,1558.73z"/>
					<path class="st38" d="M1905.6,1854.53l-296.68-175.42c-3.93-2.32-5.72-32.11-1.75-34.35l421.54-238.13
						c1.84-1.04,4.1-1.02,5.93,0.06l318.79,188.06c3.93,2.32,3.88,8.02-0.1,10.26l-441.8,249.57
						C1909.68,1855.62,1907.42,1855.6,1905.6,1854.53z"/>
					<path class="st7" d="M1910.9,1855.23l-301.98-176.12c-16.15-27.68-10.79-56.96,1.99-93.47l302.35,181.09L1910.9,1855.23z"/>
					<path class="st16" d="M1910.73,1855.23l424.6-244.15c-7.59-24.41-6.19-53.99,0.81-86.8l-424.51,234.5L1910.73,1855.23z"/>
					<path class="st38" d="M2357.15,1516.83l-12.68-0.12l0,0.46l-309.12-182.36c-1.82-1.08-4.08-1.1-5.93-0.06l-436.51,246.58
						l0.03-2.67l-8.22-0.08l-0.09,9.86l0.12,0c-0.4,2.29,0.49,4.79,2.78,6.14l318.79,188.06c1.82,1.08,4.08,1.1,5.92,0.06
						l441.8-249.57c1.89-1.07,2.86-2.91,2.97-4.81L2357.15,1516.83z"/>
					<path class="st37" d="M1910.73,1627c-1.82-1.08-317.82-45.65-317.82-45.65l0.03-2.67l-8.22-0.08l-0.09,9.86l0.12,0
						c-0.4,2.29,0.49,4.79,2.78,6.14l318.79,188.06c0.91,0.54,1.93,0.81,2.95,0.82C1910.29,1783.48,1910.73,1627,1910.73,1627z"/>
					<path class="st39" d="M1906.42,1767.72l-318.79-188.06c-3.93-2.32-3.88-8.02,0.1-10.26l440.14-248.63
						c1.84-1.04,6.79-1.34,8.62-0.27l317.75,187.45c3.93,2.32,3.88,8.02-0.1,10.26l-441.8,249.57
						C1910.5,1768.82,1908.24,1768.8,1906.42,1767.72z"/>
					<line class="st40" x1="1610.91" y1="1585.64" x2="2046.79" y2="1337.5"/>
				</g>
			</g>
			<path class="st38" d="M1608.92,1679.11c0,0-19.34-25-3.98-74.87l-7.94-4.07c0,0-14.11,37.9,3.86,75.81L1608.92,1679.11z"/>
		</g>
		<g>
			<ellipse class="st4" cx="2047.91" cy="1525.94" rx="103.99" ry="46.45"/>
			<path class="st41" d="M2080.47,1365.63l-43.96-17.73c-2.35-0.95-4.66-1.99-6.93-3.13c-2.14-1.08-4.29-1.97-6.45-2.7l0.01-0.01
				c-0.19-0.06-0.39-0.11-0.58-0.17c-1.75-0.56-3.5-1.01-5.25-1.35c-35.92-7.73-80.19-3.58-103.96,36.45
				c-21.99,37.04-11.26,83.55-11.26,83.55c7.12,37.13,39.92,77.53,43.26,78.89c0,0,19.34,14.73,33.71,19.44
				c8.03,2.63,22.78,5.53,40.73,6.55c49.67,2.83,71.48-35.19,85.72-63.26C2111.23,1490.88,2153.29,1393.22,2080.47,1365.63z"/>
			<path class="st42" d="M2081.36,1365.51l-43.96-17.73c-2.35-0.95-4.66-1.99-6.93-3.13c-2.14-1.08-4.29-1.97-6.45-2.7l0.01-0.01
				c-0.19-0.06-0.39-0.11-0.58-0.17c-1.75-0.56-3.5-1.01-5.25-1.35c-6.89-1.48-14.09-2.52-21.39-2.96l36.93,14.89
				c72.82,27.59,30.06,124.92,25.03,136.54c-29.14,67.36-93.46,64.54-85.54,68.45c20.38,10.06,29.5,6.94,47.45,7.97
				c49.67,2.83,71.48-35.19,85.72-63.26C2112.12,1490.76,2154.18,1393.11,2081.36,1365.51z"/>
			
				<ellipse transform="matrix(5.474523e-03 -1 1 5.474523e-03 620.1997 3380.2942)" class="st43" cx="2009.53" cy="1378.34" rx="9.19" ry="15.92"/>
			<path class="st44" d="M2009.83,1376.63c-0.16-1.21-3.72-29.76,18.38-42.61"/>
			<path class="st45" d="M1942.25,1392.85c0,2.79-2.26,5.05-5.05,5.05c-2.79,0-5.05-2.26-5.05-5.05s2.26-5.05,5.05-5.05
				C1939.99,1387.8,1942.25,1390.06,1942.25,1392.85z"/>
			<circle class="st45" cx="1960.5" cy="1402.88" r="5.05"/>
			<circle class="st45" cx="1942.25" cy="1416.93" r="5.05"/>
			<path class="st45" d="M1928.85,1426.04c0,2.79-2.26,5.05-5.05,5.05c-2.79,0-5.05-2.26-5.05-5.05s2.26-5.05,5.05-5.05
				C1926.59,1420.99,1928.85,1423.25,1928.85,1426.04z"/>
			<circle class="st45" cx="1947.09" cy="1436.08" r="5.05"/>
		</g>
		<path class="st12" d="M1694.35,1672.12c0,0-43.7,26.74-44.68,74.62l38.29,22.99c0,0,9.18-47.55,48.8-71.61L1694.35,1672.12z"/>
	</g>
	<g>
		<g>
			<g>
				<polygon class="st34" points="3037.67,2410.2 3244.18,2290.97 3244.18,2278.88 2954.07,2123.47 2747.56,2230.61 2747.56,2242.7 
									"/>
				<polygon class="st10" points="3037.67,2398.11 3244.18,2278.88 2954.07,2111.38 2747.56,2230.61 				"/>
			</g>
			<polygon class="st16" points="3037.7,2378.81 3232.31,2266.45 3232.31,2238.74 2958.91,2108.6 2764.3,2193.25 2764.3,2220.96 			
				"/>
			<polygon class="st7" points="3037.7,2351.1 3232.31,2238.74 2958.91,2080.89 2764.3,2193.25 			"/>
			<path class="st16" d="M2954.88,2119.71l9.63-5.56c4.04-2.33,3.53-6.44-1.14-9.14l0,0c-4.66-2.69-11.79-2.99-15.82-0.66
				l-9.63,5.56c-4.04,2.33-3.53,6.44,1.14,9.14h0C2943.72,2121.74,2950.84,2122.04,2954.88,2119.71z"/>
			<path class="st16" d="M2914.66,2142.86l9.63-5.56c4.04-2.33,3.53-6.44-1.14-9.14l0,0c-4.66-2.69-11.79-2.99-15.82-0.66
				l-9.63,5.56c-4.04,2.33-3.53,6.44,1.14,9.14l0,0C2903.5,2144.9,2910.62,2145.19,2914.66,2142.86z"/>
			<path class="st16" d="M2874.44,2166.02l9.63-5.56c4.04-2.33,3.53-6.44-1.14-9.14l0,0c-4.66-2.69-11.79-2.99-15.82-0.66
				l-9.63,5.56c-4.04,2.33-3.53,6.44,1.14,9.14l0,0C2863.28,2168.06,2870.4,2168.35,2874.44,2166.02z"/>
			<path class="st16" d="M2834.22,2189.17l9.63-5.56c4.04-2.33,3.53-6.44-1.14-9.14l0,0c-4.66-2.69-11.79-2.99-15.82-0.66
				l-9.63,5.56c-4.04,2.33-3.53,6.44,1.14,9.14l0,0C2823.06,2191.21,2830.18,2191.51,2834.22,2189.17z"/>
			<g>
				<path class="st46" d="M2894.49,2118.21c-0.65-1.41-1.75-4.67-2.23-6.1c-2.89-8.74-2.17-17.04,1.97-22.77
					c3.54-4.9,9.36-7.6,16.38-7.6c16.33,0,34.29,14.14,40.03,31.53c0.32,0.98,1.38,1.51,2.35,1.18c0.98-0.32,1.51-1.37,1.18-2.35
					c-6.21-18.8-25.75-34.09-43.57-34.09c-8.25,0-15.14,3.24-19.4,9.14c-4.85,6.71-5.76,16.23-2.49,26.12c0.52,1.57,2,5.17,2.7,6.7
					L2894.49,2118.21z"/>
			</g>
			<g>
				<path class="st46" d="M2854.27,2141.36c-0.65-1.41-1.75-4.67-2.23-6.1c-2.89-8.74-2.17-17.04,1.97-22.77
					c3.54-4.9,9.36-7.6,16.38-7.6c16.33,0,34.29,14.15,40.03,31.53c0.32,0.98,1.38,1.51,2.35,1.18c0.98-0.32,1.51-1.37,1.18-2.35
					c-6.21-18.8-25.75-34.09-43.57-34.09c-8.25,0-15.14,3.24-19.4,9.14c-4.85,6.71-5.76,16.23-2.49,26.12c0.52,1.57,2,5.17,2.7,6.7
					L2854.27,2141.36z"/>
			</g>
			<g>
				<path class="st46" d="M2814.05,2164.52c-0.65-1.41-1.75-4.67-2.23-6.1c-2.89-8.74-2.17-17.04,1.97-22.77
					c3.54-4.9,9.36-7.6,16.38-7.6c16.33,0,34.29,14.15,40.03,31.53c0.32,0.98,1.38,1.51,2.35,1.18c0.98-0.32,1.51-1.37,1.18-2.35
					c-6.21-18.8-25.75-34.09-43.57-34.09c-8.25,0-15.14,3.24-19.4,9.14c-4.85,6.71-5.76,16.23-2.49,26.12c0.52,1.57,2,5.17,2.7,6.7
					L2814.05,2164.52z"/>
			</g>
			<g>
				<path class="st46" d="M2773.83,2187.68c-0.65-1.41-1.75-4.67-2.23-6.1c-2.89-8.74-2.17-17.04,1.97-22.77
					c3.54-4.9,9.36-7.6,16.38-7.6c16.33,0,34.29,14.15,40.03,31.53c0.32,0.98,1.38,1.51,2.35,1.18c0.98-0.32,1.51-1.37,1.18-2.35
					c-6.21-18.8-25.75-34.09-43.57-34.09c-8.25,0-15.14,3.24-19.4,9.14c-4.85,6.71-5.76,16.23-2.49,26.12c0.52,1.57,2,5.17,2.7,6.7
					L2773.83,2187.68z"/>
			</g>
		</g>
		<line class="st47" x1="3006.79" y1="2112.03" x2="2820.96" y2="2219.66"/>
		<line class="st47" x1="3047.37" y1="2137" x2="2861.55" y2="2244.63"/>
		<line class="st47" x1="3086.98" y1="2162.18" x2="2901.16" y2="2269.81"/>
		<line class="st47" x1="3128.36" y1="2185.88" x2="2942.53" y2="2293.51"/>
		<line class="st47" x1="3169.87" y1="2210.67" x2="2984.05" y2="2318.31"/>
	</g>
	<g>
		<g>
			<polygon class="st34" points="2759.69,2113.03 3124.39,1902.47 3124.39,1881.12 2612.05,1606.68 2247.35,1795.88 
				2247.35,1817.23 			"/>
			<polygon class="st10" points="2759.69,2091.68 3124.39,1881.12 2612.05,1585.32 2247.35,1795.88 			"/>
		</g>
		<g>
			<polygon class="st34" points="2370.66,2339.42 2746.66,2122.34 2746.66,2100.32 2218.44,1817.37 1842.44,2012.44 
				1842.44,2034.46 			"/>
			<polygon class="st10" points="2370.66,2317.41 2746.66,2100.32 2218.44,1795.36 1842.44,2012.44 			"/>
		</g>
		
			<rect x="2229.45" y="1826.78" transform="matrix(-1 -1.224647e-16 1.224647e-16 -1 4473.4019 3663.2192)" class="st48" width="14.5" height="9.67"/>
		<path class="st16" d="M2382.08,2286.49c0,0,164.66-90.03,321.6-189.44c0.57-0.42,0-31.66,0-31.66
			c-80.1-50.85-464.59-243.16-464.59-243.16l-325.14,189.06L2382.08,2286.49z"/>
		<path class="st7" d="M2382.08,2254.82c0,0,164.66-90.03,321.6-189.44c5.01-3.71-464.59-274.82-464.59-274.82l-325.14,189.06
			L2382.08,2254.82z"/>
		<path class="st16" d="M2758.8,2065.34c0,0,164.66-90.03,321.6-189.44c0.57-0.42,0-31.66,0-31.66
			c-80.1-50.85-464.59-243.16-464.59-243.16l-325.14,157.39v31.66L2758.8,2065.34z"/>
		<path class="st7" d="M2758.8,2033.68c0,0,164.66-90.03,321.6-189.44c5.01-3.71-464.59-274.82-464.59-274.82l-325.14,189.06
			L2758.8,2033.68z"/>
		<polygon class="st7" points="1923.77,1973.9 1873.95,2002.29 1951.23,2045.4 2053.96,2049.74 		"/>
		<polygon class="st49" points="2056.98,1981.68 2244.26,1873.55 2202.56,1849.47 2015.27,1957.6 		"/>
		<g>
			<g>
				<polygon class="st49" points="2389.3,2197.58 2420.67,2179.47 2389.5,2161.47 2358.12,2179.58 				"/>
				<line class="st49" x1="2551.59" y1="2068.14" x2="2406.69" y2="2150.46"/>
				<line class="st49" x1="2513.49" y1="2121.4" x2="2430.55" y2="2168.51"/>
			</g>
			<g>
				<polygon class="st49" points="2334.48,2165.46 2365.85,2147.35 2334.67,2129.35 2303.3,2147.46 				"/>
				<line class="st49" x1="2496.77" y1="2036.02" x2="2351.87" y2="2118.34"/>
				<line class="st49" x1="2458.66" y1="2089.28" x2="2375.72" y2="2136.39"/>
			</g>
			<g>
				<polygon class="st49" points="2279.65,2133.34 2311.02,2115.23 2279.85,2097.23 2248.48,2115.34 				"/>
				<line class="st49" x1="2441.95" y1="2003.9" x2="2297.05" y2="2086.22"/>
				<line class="st49" x1="2403.84" y1="2057.16" x2="2320.9" y2="2104.28"/>
			</g>
			<g>
				<polygon class="st49" points="2224.83,2101.22 2256.2,2083.11 2225.02,2065.11 2193.65,2083.22 				"/>
				<line class="st49" x1="2387.12" y1="1971.78" x2="2242.22" y2="2054.1"/>
				<line class="st49" x1="2349.02" y1="2025.04" x2="2266.08" y2="2072.16"/>
			</g>
			<g>
				<polygon class="st49" points="2170.01,2069.1 2201.38,2050.99 2170.2,2032.99 2138.83,2051.1 				"/>
				<line class="st49" x1="2332.3" y1="1939.67" x2="2187.4" y2="2021.98"/>
				<line class="st49" x1="2294.19" y1="1992.92" x2="2211.25" y2="2040.04"/>
			</g>
			<g>
				<polygon class="st49" points="2115.18,2036.98 2146.55,2018.87 2115.38,2000.87 2084.01,2018.98 				"/>
				<line class="st49" x1="2277.48" y1="1907.55" x2="2132.58" y2="1989.86"/>
				<line class="st49" x1="2239.37" y1="1960.8" x2="2156.43" y2="2007.92"/>
			</g>
		</g>
		<g>
			<polygon class="st49" points="2440.19,1757.71 2617.14,1655.55 2577.73,1632.8 2400.78,1734.96 			"/>
			<polygon class="st49" points="2504.6,1795.36 2681.55,1693.2 2642.14,1670.44 2465.19,1772.61 			"/>
			<polygon class="st49" points="2569.01,1833.01 2745.96,1730.84 2706.55,1708.09 2529.6,1810.25 			"/>
			<polygon class="st49" points="2633.42,1870.66 2810.37,1768.49 2770.96,1745.74 2594.01,1847.9 			"/>
			<polygon class="st49" points="2697.83,1908.3 2874.78,1806.14 2835.37,1783.39 2658.42,1885.55 			"/>
			<polygon class="st49" points="2762.24,1945.95 2939.19,1843.79 2899.78,1821.04 2722.83,1923.2 			"/>
		</g>
		<g>
			<ellipse class="st16" cx="2691.02" cy="1976.12" rx="8.4" ry="4.71"/>
			<path class="st16" d="M2602.13,2021.04c0,2.6,3.76,4.71,8.4,4.71c4.64,0,8.4-2.11,8.4-4.71c0-2.6-3.76-4.71-8.4-4.71
				C2605.89,2016.33,2602.13,2018.43,2602.13,2021.04z"/>
			<path class="st50" d="M2691.02,1974.56c0-25.51-18.02-35.78-40.25-22.95c-22.23,12.83-40.25,43.91-40.25,69.42"/>
		</g>
		<g>
			<path class="st16" d="M2613.67,1933.93c0,2.6,3.76,4.71,8.4,4.71c4.64,0,8.4-2.11,8.4-4.71c0-2.6-3.76-4.71-8.4-4.71
				C2617.43,1929.22,2613.67,1931.33,2613.67,1933.93z"/>
			<ellipse class="st16" cx="2541.58" cy="1978.85" rx="8.4" ry="4.71"/>
			<path class="st50" d="M2622.07,1932.38c0-25.51-18.02-35.78-40.25-22.95c-22.23,12.83-40.25,43.91-40.25,69.42"/>
		</g>
		<g>
			<ellipse class="st16" cx="2553.12" cy="1891.75" rx="8.4" ry="4.71"/>
			<ellipse class="st16" cx="2472.63" cy="1936.67" rx="8.4" ry="4.71"/>
			<path class="st50" d="M2553.12,1890.19c0-25.51-18.02-35.78-40.25-22.95c-22.23,12.83-40.25,43.91-40.25,69.42"/>
		</g>
		<g>
			<ellipse class="st16" cx="2482.33" cy="1850.06" rx="8.4" ry="4.71"/>
			<ellipse class="st16" cx="2401.84" cy="1894.97" rx="8.4" ry="4.71"/>
			<path class="st50" d="M2482.33,1848.5c0-25.51-18.02-35.78-40.25-22.95s-40.25,43.91-40.25,69.42"/>
		</g>
		<g>
			<ellipse class="st16" cx="2412.83" cy="1809.74" rx="8.4" ry="4.71"/>
			<path class="st16" d="M2323.94,1854.65c0,2.6,3.76,4.71,8.4,4.71c4.64,0,8.4-2.11,8.4-4.71c0-2.6-3.76-4.71-8.4-4.71
				C2327.7,1849.94,2323.94,1852.05,2323.94,1854.65z"/>
			<path class="st50" d="M2412.83,1808.18c0-25.51-18.02-35.78-40.25-22.95c-22.23,12.83-40.25,43.91-40.25,69.42"/>
		</g>
		<path class="st4" d="M2906.04,1749.88c0.46,2.68,0.27,5.26-0.42,7.57c-0.02,0.05-0.03,0.11-0.04,0.17
			c-1.63,5.17-5.87,8.95-11.39,9.39l-5.88,0.46l-318.48,25.11c-1.84,0.15-3.67-0.11-5.42-0.67l-37.87-4.7l-23.45-4.04l20.83-6.17
			l35.32-14.84l0.01,0c1.52-0.84,3.23-1.38,5.1-1.52l302.03-23.81v0l22.33-1.76c1.5-0.12,3,0.02,4.45,0.38
			c0.97,0.24,1.91,0.58,2.82,1.01c0.91,0.43,1.79,0.94,2.62,1.54c0.83,0.6,1.62,1.27,2.35,2.01c0.37,0.37,0.72,0.76,1.05,1.16
			C2904.03,1743.59,2905.48,1746.59,2906.04,1749.88z"/>
		<g>
			<path class="st51" d="M2537.75,1769.3L2537.75,1769.3c0.97,8.7,8.58,15.33,16.92,14.73l337.07-24.19
				c8.34-0.6,14.37-8.21,13.4-16.91v0c-0.97-8.7-8.58-15.33-16.92-14.73l-337.07,24.19
				C2542.81,1752.99,2536.78,1760.59,2537.75,1769.3z"/>
			<path class="st52" d="M2537.75,1769.3L2537.75,1769.3l367.4-26.36l0,0c-0.97-8.7-8.58-15.33-16.92-14.73l-337.07,24.19
				C2542.81,1752.99,2536.78,1760.59,2537.75,1769.3z"/>
			<polygon class="st53" points="2554.67,1784.03 2510.28,1778.55 2508.26,1768.44 2545.77,1753.88 2557.1,1757.19 2551.72,1765.39 
				2559.35,1771.79 2553.63,1777.02 2561.69,1780.47 			"/>
			<polygon class="st54" points="2509.37,1773.97 2508.26,1768.44 2545.77,1753.88 2557.1,1757.19 2551.72,1765.39 2559.35,1771.79 
							"/>
			<polygon class="st34" points="2486.31,1774.48 2510.28,1778.55 2508.26,1768.44 			"/>
			<path class="st10" d="M2905.15,1742.93c0.97,8.7-5.06,16.31-13.4,16.91l-23.25,1.67c1.8-7.91,2.2-19.03-3.48-31.64l23.21-1.67
				C2896.56,1727.6,2904.18,1734.23,2905.15,1742.93z"/>
			<path class="st55" d="M2861.13,1762.04c0,0,5.62-17.3-5.45-31.5"/>
		</g>
	</g>
	<g>
		<path class="st56" d="M3829.47,554.12c0,0,138.61-45.74,118.18-236.55C3947.65,317.57,3775,411.74,3829.47,554.12z"/>
		<g>
			<ellipse class="st4" cx="3862.37" cy="974.56" rx="134.16" ry="42.83"/>
			<g>
				<path class="st7" d="M3993.03,799.14l-335.75-9.78l54.21,166.19c2.03,15.37,13.22,30.44,33.63,42.22
					c45.13,26.06,118.08,26.19,162.93,0.29c18.81-10.86,29.66-24.57,32.62-38.75l0.03,0L3993.03,799.14z"/>
				<path class="st16" d="M3993.03,799.14c-46.57,93.01-93.12,186.05-167.87,218.25c30,0.28,60.08-6.15,82.89-19.33
					c18.81-10.86,29.66-24.57,32.62-38.75l0.03,0L3993.03,799.14z"/>
				
					<ellipse transform="matrix(5.422411e-03 -1 1 5.422411e-03 3026.8137 4600.834)" class="st20" cx="3826.33" cy="778.78" rx="98.26" ry="170.19"/>
				
					<ellipse transform="matrix(5.424454e-03 -1 1 5.424454e-03 3028.8098 4596.498)" class="st11" cx="3825.15" cy="775.61" rx="84.34" ry="146.09"/>
			</g>
		</g>
		<line class="st57" x1="3827.93" y1="392.83" x2="3827.93" y2="799.79"/>
		<path class="st58" d="M3826.31,687.17c0,0,6.35-145.82-179.32-194.34C3646.99,492.83,3673.86,687.64,3826.31,687.17z"/>
		<path class="st58" d="M3831.41,634.01c0,0,144.53-20.41,158.29-211.82C3989.7,422.19,3803.08,484.22,3831.41,634.01z"/>
		<path class="st58" d="M3829.26,522.52c0,0,64.7-138.02-94.8-259.38C3734.46,263.14,3682.1,461.74,3829.26,522.52z"/>
		<line class="st59" x1="3829.68" y1="514.19" x2="3737.97" y2="271.46"/>
	</g>
	<path class="st60" d="M5100,2428.57l-701.96-1.3c0.66-11.78,2.85-27.34,5.63-39.09l128.35-542.69
		c23.24-98.26,94.13-196.6,177.24-245.87L5100,1367.47V2428.57z"/>
	<path class="st61" d="M5099.83,2428.57h-496.48l80.13-508.91c35.01-148.02,245.99-241.66,371.18-315.87l45.17-25.27
		C5100.21,1584.47,5099.83,2428.57,5099.83,2428.57z"/>
	<g>
		<path class="st62" d="M4796.34,2132.77c0,0,171.73,45.85,303.66,111.34v-86.8C5030.92,2124.63,4930.49,2102.25,4796.34,2132.77z"
			/>
		<path class="st62" d="M5100,1883.59c-50.11-76.38-97.4-132.3-97.36-129.19c1.06,82.9,29.99,173.66,65.73,254.69
			c-75.43-71.67-196.48-151.34-351.76-134.38c0,0,226.43,91.64,383.39,228.38V1883.59z"/>
		<path class="st62" d="M5100,2328.65v-100.62c-96.42-26.3-222.93-25.83-354.26,72.23C4745.74,2300.25,4935.35,2300.02,5100,2328.65
			z"/>
	</g>
	<g>
		<path class="st16" d="M3133.95,2070.84l108.58-62.69c5.05-2.91,4.41-8-1.41-11.36l-35.67-20.59c-5.83-3.36-14.64-3.73-19.68-0.82
			l-108.58,62.69c-5.05,2.91-4.41,8,1.41,11.36l35.67,20.59C3120.1,2073.39,3128.91,2073.75,3133.95,2070.84z"/>
		
			<ellipse transform="matrix(1 -5.420602e-03 5.420602e-03 1 -11.0358 16.9448)" class="st20" cx="3120.46" cy="2044.37" rx="24.54" ry="14.17"/>
		<line class="st63" x1="3206.21" y1="1987.8" x2="3140.72" y2="2025.8"/>
		<line class="st63" x1="3218.32" y1="1998.15" x2="3184.28" y2="2017.91"/>
	</g>
	<g>
		<path class="st39" d="M3218.2,2121.3l108.58-62.69c5.05-2.91,4.41-8-1.41-11.36l-35.67-20.59c-5.83-3.36-14.64-3.73-19.68-0.82
			l-108.58,62.69c-5.05,2.91-4.41,8,1.41,11.36l35.67,20.59C3204.35,2123.85,3213.16,2124.21,3218.2,2121.3z"/>
		
			<ellipse transform="matrix(1 -5.425201e-03 5.425201e-03 1 -11.3177 17.417)" class="st20" cx="3204.71" cy="2094.83" rx="24.54" ry="14.17"/>
		<line class="st63" x1="3290.46" y1="2038.26" x2="3224.97" y2="2076.26"/>
		<line class="st63" x1="3302.57" y1="2048.61" x2="3268.53" y2="2068.36"/>
	</g>
	<g>
		<path class="st16" d="M3302.46,2171.76l108.58-62.69c5.05-2.91,4.41-8-1.41-11.36l-35.67-20.59c-5.83-3.36-14.64-3.73-19.68-0.82
			l-108.58,62.69c-5.05,2.91-4.41,8,1.41,11.36l35.67,20.59C3288.6,2174.31,3297.41,2174.67,3302.46,2171.76z"/>
		
			<ellipse transform="matrix(1 -5.423044e-03 5.423044e-03 1 -11.5856 17.8677)" class="st20" cx="3288.96" cy="2145.28" rx="24.54" ry="14.17"/>
		<line class="st63" x1="3374.71" y1="2088.72" x2="3309.23" y2="2126.72"/>
		<line class="st63" x1="3386.82" y1="2099.07" x2="3352.78" y2="2118.82"/>
	</g>
	<g>
		<path class="st4" d="M1805.67,2059.79c-46.62-26.92-121.98-27.05-168.31-0.3c-46.33,26.75-46.1,70.25,0.53,97.17
			c35.53,20.52,87.74,25.46,131.09,14.81l14.45,9.49c7.3,4.8,20.51,4.73,29.34-0.16c8.84-4.88,10.1-12.8,2.8-17.59l-9.45-6.2
			c0.03-0.01,0.05-0.03,0.08-0.04C1852.53,2130.22,1852.29,2086.71,1805.67,2059.79z"/>
		
			<ellipse transform="matrix(5.422312e-03 -1 1 5.422312e-03 -443.1748 3752.092)" class="st10" cx="1664.66" cy="2098.84" rx="68.71" ry="119.01"/>
		<rect x="1545.65" y="1907.84" class="st10" width="238.02" height="191"/>
		<path class="st64" d="M1713.54,1906.83l0,191h-0.01c0.19,17.66-11.32,35.31-34.58,48.74c-13.95,8.05-30.55,13.62-48.18,16.8
			c40.86,7.36,87.09,1.8,119.31-16.8c23.26-13.43,34.78-31.08,34.58-48.74h0.01l-1.02-188.62L1713.54,1906.83z"/>
		
			<ellipse transform="matrix(5.422317e-03 -1 1 5.422317e-03 -252.1763 3562.1267)" class="st20" cx="1664.66" cy="1907.84" rx="68.71" ry="119.01"/>
		
			<ellipse transform="matrix(5.417472e-03 -1 1 5.417472e-03 -250.9992 3560.9734)" class="st64" cx="1664.66" cy="1906.67" rx="61.12" ry="105.87"/>
		<path class="st1" d="M1739.29,1900.83c-41.47-23.95-108.51-24.07-149.73-0.27c-12.24,7.07-20.74,15.46-25.68,24.39
			c5,9.06,13.67,17.61,26.14,24.81c41.47,23.95,108.51,24.07,149.73,0.27c12.24-7.07,20.74-15.46,25.68-24.39
			C1760.43,1916.58,1751.76,1908.03,1739.29,1900.83z"/>
		<path class="st65" d="M1574.43,1938.3c0.16-0.39,0.34-0.8,0.54-1.22c5.56-11.72,16.81-19.63,29.58-21.93
			c30.51-5.48,63.07-3.31,88.08,7.64c12.95,5.67,22.32,13.07,28.22,21.39c2.72,3.69,5.07,8.53,6.1,12.14
			C1658.37,1985.3,1584.49,1953.7,1574.43,1938.3z"/>
		<path class="st10" d="M1738.66,1995.61c13.47,7.08,33.95,13.27,38.63,29.68c2.59,9.08,2.12,42.26,1.5,63.64
			c-0.28,9.75-11.02,15.53-19.33,10.41c-2.62-1.61-4.92-3.05-6.47-3.86c-17.4-9.03-32.85,17.28-15.4,26.34
			c12.76,6.62,30.94,19.57,46.07,17.86c21.54-2.43,24.38-24,24.84-41.41c0.7-26.57,4.34-58.44-1.7-84.5
			c-5.61-24.18-33.1-34.17-52.75-44.5C1736.7,1960.14,1721.26,1986.46,1738.66,1995.61L1738.66,1995.61z"/>
	</g>
	<path class="st66" d="M1896.19,1713.25l-215.39-124.36c-5.95-3.44-5.2-9.49,1.67-13.46l0,0c6.87-3.97,17.36-4.4,23.31-0.97
		l215.39,124.36c5.95,3.44,5.2,9.49-1.67,13.46l0,0C1912.63,1716.25,1902.14,1716.68,1896.19,1713.25z"/>
	<path class="st66" d="M1964.6,1671.36L1749.21,1547c-5.95-3.44-5.2-9.49,1.67-13.46l0,0c6.87-3.97,17.36-4.4,23.31-0.97
		l215.39,124.36c5.95,3.44,5.2,9.49-1.67,13.46l0,0C1981.05,1674.36,1970.55,1674.79,1964.6,1671.36z"/>
	<g>
		<g>
			<path class="st27" d="M4386.28,916.16c3.12,13.93-5.73,27.78-12.88,29.39c-7.14,1.6-2.53-11.29-5.65-25.22
				c-3.12-13.93-12.79-23.62-5.65-25.22C4369.25,893.5,4383.16,902.23,4386.28,916.16z"/>
		</g>
		<path class="st29" d="M4337.14,918.63c0,0-0.86-35.5,14.28-50.52"/>
	</g>
	<path class="st20" d="M1632.22,2084.86h-33.36c-9.37,0-17.04-7.67-17.04-17.04v-19.03c0-9.37,7.67-17.04,17.04-17.04h33.36
		c9.37,0,17.04,7.67,17.04,17.04v19.03C1649.26,2077.19,1641.59,2084.86,1632.22,2084.86z"/>
	<path class="st67" d="M1613.14,2047.85c0,0-1.77-81.72,27.48-83.56"/>
	<g>
		<path class="st68" d="M3311.49,1040.39l-142.54,84c-39.57,23.32-77.73,3.89-84.8-43.18l-8.95-59.64
			c-7.07-47.07,19.53-104.66,59.1-127.97l142.54-84c39.57-23.32,77.73-3.89,84.8,43.18l8.95,59.64
			C3377.66,959.48,3351.07,1017.07,3311.49,1040.39z"/>
		<path class="st69" d="M3296.74,1019.58l-142.54,84c-39.57,23.32-77.73,3.89-84.8-43.18l-8.95-59.64
			c-7.07-47.07,19.53-104.66,59.1-127.97l142.54-84c39.57-23.32,77.73-3.89,84.8,43.18l8.95,59.64
			C3362.91,938.67,3336.31,996.26,3296.74,1019.58z"/>
		<path class="st20" d="M3189.7,1009.7l-12.49-83.19c-1.01-6.72,4.28-14.59,9.79-14.57l76.19,0.38c6.1,0.03,7.53,9.54,2.43,16.17
			l-63.7,82.81C3197.31,1017.29,3190.7,1016.42,3189.7,1009.7z"/>
		<path class="st68" d="M3066.42,1024.16l-53.9,31.76c-32.06,18.89-53.61,65.55-47.88,103.68v0c5.72,38.13,36.64,53.87,68.7,34.98
			l53.9-31.76c1.35-0.79,2.67-1.65,3.98-2.54l-0.46,0.47l33.92,2.78l-9.01-28.23c15.14-22.15,23.23-51,19.46-76.15v0
			C3129.39,1021.01,3098.48,1005.27,3066.42,1024.16z"/>
		<path class="st68" d="M3389.91,736.66l-63.25,37.27c-25.35,14.94-42.38,51.82-37.86,81.97l1.14,7.58
			c4.53,30.15,28.97,42.59,54.31,27.66l63.25-37.27c25.35-14.94,42.38-51.82,37.86-81.97l-1.14-7.58
			C3439.7,734.17,3415.26,721.72,3389.91,736.66z"/>
		<g>
			<path class="st52" d="M3069.5,1165.67l-53.9,31.76c-32.06,18.89-62.97,3.15-68.7-34.98v0c-5.72-38.13,15.82-84.78,47.88-103.68
				l53.9-31.76c32.06-18.89,62.97-3.15,68.7,34.98v0C3123.1,1100.12,3101.56,1146.78,3069.5,1165.67z"/>
			<polygon class="st52" points="3073.01,1163.6 3106.93,1166.38 3097.92,1138.14 			"/>
			
				<ellipse transform="matrix(0.3901 -0.9208 0.9208 0.3901 790.2735 3449.9956)" class="st20" cx="2999.35" cy="1128.46" rx="13.53" ry="9.11"/>
			
				<ellipse transform="matrix(0.3901 -0.9208 0.9208 0.3901 827.5685 3468.1614)" class="st20" cx="3031.72" cy="1109.39" rx="13.53" ry="9.11"/>
			
				<ellipse transform="matrix(0.3901 -0.9208 0.9208 0.3901 864.8675 3486.3308)" class="st20" cx="3064.08" cy="1090.32" rx="13.53" ry="9.11"/>
		</g>
		<g>
			<path class="st33" d="M3418.04,822.8l-63.25,37.27c-25.35,14.94-49.79,2.49-54.31-27.66l-1.14-7.58
				c-4.53-30.15,12.51-67.03,37.86-81.97l63.25-37.27c25.35-14.94,49.79-2.49,54.31,27.66l1.14,7.58
				C3460.42,770.98,3443.38,807.86,3418.04,822.8z"/>
			<g>
				<line class="st70" x1="3320.86" y1="780.87" x2="3421.15" y2="721.77"/>
				<line class="st70" x1="3325.14" y1="809.41" x2="3425.44" y2="750.32"/>
				<line class="st70" x1="3329.43" y1="837.96" x2="3398.47" y2="797.28"/>
			</g>
		</g>
	</g>
</g>
</svg>
